<svg width="508" height="342" viewBox="0 0 508 342" fill="none" xmlns="http://www.w3.org/2000/svg">
<path d="M82.2696 116.379C82.6461 116.146 83.0798 116.023 83.5222 116.023C83.9645 116.023 84.3982 116.146 84.7747 116.379C84.9894 116.506 85.2041 116.633 85.4189 116.744L86.0869 117.086C86.4884 117.268 86.8317 117.558 87.0788 117.922C87.3259 118.287 87.467 118.714 87.4865 119.154L87.582 122.24L97.6261 121.93L97.5307 118.844C97.5201 118.402 97.6328 117.965 97.8561 117.583C98.0794 117.201 98.4045 116.889 98.7952 116.681C99.2331 116.439 99.6579 116.173 100.068 115.886C100.427 115.632 100.85 115.483 101.29 115.455C101.729 115.427 102.168 115.521 102.557 115.726L105.269 117.182L110.04 108.315L107.312 106.835C106.924 106.625 106.601 106.31 106.38 105.927C106.16 105.544 106.05 105.106 106.064 104.664C106.064 104.163 106.064 103.662 106.016 103.169C105.973 102.729 106.054 102.285 106.249 101.887C106.445 101.49 106.747 101.154 107.122 100.919L109.746 99.3282L104.442 90.7871L101.809 92.4174C101.434 92.648 101.001 92.7702 100.561 92.7702C100.12 92.7702 99.6877 92.648 99.3121 92.4174C99.1053 92.2901 98.8906 92.1629 98.6679 92.0436L98.0078 91.7175C97.604 91.5346 97.2591 91.2427 97.0119 90.8747C96.7646 90.5066 96.6248 90.077 96.6082 89.6339L96.5207 86.5483L86.4686 86.8585L86.572 89.9361C86.584 90.3798 86.4721 90.8181 86.2487 91.2016C86.0253 91.5851 85.6994 91.8988 85.3075 92.1072C84.8695 92.3495 84.4448 92.6149 84.0351 92.9025C83.6744 93.1576 83.25 93.3075 82.8091 93.3356C82.3682 93.3637 81.9281 93.2688 81.538 93.0615L78.8261 91.6142L74.0546 100.473L76.7664 101.921C77.1553 102.131 77.478 102.446 77.6985 102.829C77.919 103.213 78.0285 103.65 78.015 104.092C78.015 104.59 78.0309 105.091 78.0627 105.595C78.1055 106.036 78.0247 106.48 77.8295 106.877C77.6343 107.275 77.3323 107.61 76.9573 107.845L74.3409 109.436L79.6532 117.969L82.2696 116.379ZM84.7906 100.473C85.5594 99.0376 86.7369 97.8622 88.174 97.0959C89.6111 96.3296 91.2432 96.0068 92.8638 96.1685C94.4844 96.3301 96.0206 96.9689 97.278 98.004C98.5354 99.0391 99.4575 100.424 99.9275 101.983C100.398 103.543 100.394 105.206 99.9185 106.764C99.4426 108.321 98.5153 109.703 97.254 110.733C95.9927 111.764 94.4541 112.397 92.8329 112.552C91.2117 112.708 89.5808 112.379 88.1466 111.607C86.2299 110.571 84.8011 108.818 84.1723 106.732C83.5435 104.646 83.7658 102.396 84.7906 100.473Z" fill="#DBDBDB"/>
<path d="M410.554 133.93C410.821 134.095 411.038 134.331 411.178 134.612C411.319 134.893 411.378 135.208 411.349 135.52C411.349 135.687 411.349 135.862 411.349 136.037C411.349 136.212 411.349 136.387 411.349 136.562C411.371 136.868 411.309 137.173 411.169 137.446C411.028 137.718 410.815 137.946 410.554 138.105L408.685 139.187L412.2 145.286L414.077 144.205C414.346 144.052 414.652 143.978 414.96 143.989C415.269 144 415.569 144.097 415.826 144.268C416.119 144.458 416.422 144.634 416.733 144.793C417.01 144.931 417.244 145.143 417.408 145.405C417.572 145.668 417.66 145.971 417.663 146.28V148.435H424.701V146.28C424.704 145.971 424.793 145.668 424.957 145.405C425.121 145.143 425.355 144.931 425.632 144.793C425.943 144.634 426.245 144.458 426.538 144.268C426.796 144.097 427.095 144 427.404 143.989C427.713 143.978 428.019 144.052 428.288 144.205L430.165 145.286L433.68 139.187L431.803 138.105C431.541 137.944 431.329 137.714 431.188 137.441C431.048 137.168 430.986 136.861 431.008 136.554C431.008 136.387 431.008 136.212 431.008 136.037C431.008 135.862 431.008 135.687 431.008 135.52C430.978 135.207 431.037 134.892 431.177 134.611C431.318 134.33 431.535 134.094 431.803 133.93L433.672 132.856L430.157 126.757L428.288 127.83C428.019 127.985 427.712 128.062 427.401 128.052C427.091 128.043 426.789 127.946 426.53 127.775C426.238 127.583 425.936 127.407 425.624 127.25C425.347 127.112 425.113 126.9 424.949 126.637C424.785 126.375 424.696 126.072 424.693 125.763V123.607H417.655V125.763C417.653 126.072 417.564 126.375 417.4 126.637C417.236 126.9 417.002 127.112 416.725 127.25C416.414 127.409 416.111 127.584 415.818 127.775C415.56 127.946 415.258 128.043 414.947 128.052C414.637 128.062 414.33 127.985 414.061 127.83L412.192 126.757L408.677 132.856L410.554 133.93ZM421.178 130.232C422.321 130.23 423.438 130.568 424.388 131.201C425.339 131.835 426.08 132.736 426.518 133.791C426.956 134.845 427.072 136.007 426.85 137.127C426.628 138.248 426.079 139.277 425.272 140.085C424.465 140.894 423.436 141.444 422.316 141.668C421.195 141.891 420.034 141.777 418.979 141.34C417.923 140.904 417.021 140.164 416.386 139.214C415.752 138.264 415.413 137.148 415.413 136.006C415.413 134.476 416.02 133.008 417.101 131.926C418.182 130.843 419.649 130.234 421.178 130.232Z" fill="#DBDBDB"/>
<path d="M445.752 194.076C445.752 199.499 447.36 204.8 450.373 209.31C453.386 213.819 457.668 217.333 462.679 219.409C467.689 221.484 473.203 222.027 478.522 220.969C483.841 219.911 488.727 217.3 492.562 213.465C496.396 209.63 499.008 204.744 500.066 199.425C501.124 194.106 500.581 188.593 498.506 183.582C496.43 178.572 492.916 174.289 488.406 171.276C483.897 168.263 478.596 166.655 473.172 166.655C469.571 166.655 466.006 167.364 462.679 168.742C459.352 170.12 456.329 172.14 453.783 174.686C451.237 177.232 449.217 180.255 447.839 183.582C446.461 186.909 445.752 190.475 445.752 194.076ZM460.369 194.076C460.367 191.541 461.117 189.063 462.524 186.955C463.932 184.847 465.932 183.203 468.274 182.233C470.615 181.262 473.192 181.008 475.678 181.502C478.164 181.996 480.447 183.216 482.239 185.008C484.032 186.801 485.252 189.084 485.746 191.57C486.24 194.056 485.986 196.633 485.015 198.974C484.045 201.315 482.401 203.316 480.293 204.723C478.185 206.131 475.707 206.881 473.172 206.879C469.777 206.879 466.52 205.53 464.119 203.129C461.718 200.728 460.369 197.471 460.369 194.076Z" fill="#EBEBEB"/>
<path d="M467.9 167.792H478.445L477.864 160.325H468.488L467.9 167.792Z" fill="#EBEBEB"/>
<path d="M487.972 171.347L495.432 178.807L500.299 173.112L493.666 166.48L487.972 171.347Z" fill="#EBEBEB"/>
<path d="M499.655 188.047V198.593L507.122 198.012V188.636L499.655 188.047Z" fill="#EBEBEB"/>
<path d="M496.1 208.12L488.648 215.579L494.334 220.446L500.967 213.814L496.1 208.12Z" fill="#EBEBEB"/>
<path d="M479.399 219.802H468.854L469.435 227.27H478.811L479.399 219.802Z" fill="#EBEBEB"/>
<path d="M459.327 216.247L451.867 208.796L447 214.482L453.633 221.115L459.327 216.247Z" fill="#EBEBEB"/>
<path d="M447.645 199.547V189.002L440.177 189.582V198.958L447.645 199.547Z" fill="#EBEBEB"/>
<path d="M451.199 179.475L458.651 172.015L452.965 167.148L446.332 173.781L451.199 179.475Z" fill="#EBEBEB"/>
<path d="M5.57468 61.951C5.57468 67.3743 7.18287 72.6758 10.1959 77.1851C13.2089 81.6944 17.4914 85.2089 22.5019 87.2843C27.5123 89.3597 33.0257 89.9028 38.3448 88.8447C43.6639 87.7867 48.5497 85.1751 52.3846 81.3403C56.2194 77.5055 58.831 72.6196 59.889 67.3005C60.947 61.9814 60.404 56.4681 58.3286 51.4576C56.2532 46.4471 52.7387 42.1646 48.2294 39.1516C43.7201 36.1386 38.4186 34.5304 32.9953 34.5304C25.7229 34.5304 18.7483 37.4193 13.606 42.5617C8.46363 47.7041 5.57468 54.6786 5.57468 61.951ZM20.1916 61.951C20.19 59.4164 20.9403 56.9383 22.3474 54.8302C23.7546 52.7222 25.7554 51.0788 28.0968 50.1081C30.4381 49.1375 33.0148 48.8831 35.5007 49.3772C37.9867 49.8713 40.2702 51.0916 42.0624 52.8838C43.8547 54.6761 45.075 56.9596 45.5691 59.4456C46.0632 61.9315 45.8088 64.5082 44.8381 66.8495C43.8675 69.1909 42.2241 71.1917 40.1161 72.5989C38.008 74.006 35.5299 74.7563 32.9953 74.7547C29.5995 74.7547 26.3429 73.4058 23.9417 71.0046C21.5405 68.6034 20.1916 65.3468 20.1916 61.951Z" fill="#EBEBEB"/>
<path d="M27.7228 35.6674H38.2679L37.6874 28.2079H28.3113L27.7228 35.6674Z" fill="#EBEBEB"/>
<path d="M47.7953 39.2225L55.2548 46.682L60.1218 40.9879L53.4893 34.3555L47.7953 39.2225Z" fill="#EBEBEB"/>
<path d="M59.4775 55.9229V66.468L66.945 65.8875V56.5113L59.4775 55.9229Z" fill="#EBEBEB"/>
<path d="M55.9226 75.9954L48.471 83.4549L54.1571 88.3219L60.7896 81.6894L55.9226 75.9954Z" fill="#EBEBEB"/>
<path d="M39.2223 87.6776H28.6772L29.2577 95.1451H38.6338L39.2223 87.6776Z" fill="#EBEBEB"/>
<path d="M19.1499 84.123L11.6904 76.6714L6.82339 82.3575L13.4559 88.99L19.1499 84.123Z" fill="#EBEBEB"/>
<path d="M7.46751 67.4224V56.8772L0 57.4577V66.8339L7.46751 67.4224Z" fill="#EBEBEB"/>
<path d="M11.0224 47.3497L18.474 39.8902L12.7878 35.0232L6.15536 41.6557L11.0224 47.3497Z" fill="#EBEBEB"/>
<path d="M294.382 94.008C289.61 94.0876 277.482 94.2864 272.838 94.3341L265.577 94.3739H265.22V94.008V85.1091V84.7114H265.617L280.019 84.7671C283.606 84.7671 290.835 84.8705 294.422 84.9261H294.612V85.1091L294.429 94.008H294.382ZM294.382 94.008L294.199 85.1091L294.382 85.292C290.787 85.3476 283.574 85.4192 279.98 85.451L265.577 85.5067L265.975 85.1091V94.008L265.609 93.6422H272.767C277.331 93.6979 289.706 93.8967 294.429 93.9762L294.382 94.008Z" fill="#EBEBEB"/>
<path d="M278.318 105.245C273.546 105.324 261.41 105.523 256.774 105.571L249.513 105.611H249.147V105.245V96.3458V95.9481H249.545L263.947 96.0038C267.526 96.0038 274.763 96.1072 278.349 96.1628H278.532V96.3458L278.318 105.245ZM278.318 105.245L278.127 96.3458L278.318 96.5287C274.723 96.5843 267.502 96.6559 263.915 96.6877L249.513 96.7434L249.911 96.3458L249.871 105.245L249.513 104.879H256.671C261.235 104.935 273.618 105.133 278.342 105.213L278.318 105.245Z" fill="#EBEBEB"/>
<path d="M310.446 96.3301H281.642V105.229H310.446V96.3301Z" fill="#EBEBEB"/>
<path d="M189.145 169.661C184.373 169.741 172.238 169.939 167.601 169.987L160.34 170.027H159.975V169.661V160.762V160.364H160.372L174.774 160.42C178.361 160.42 185.59 160.523 189.177 160.579H189.36V160.762L189.145 169.661ZM189.145 169.661L188.954 160.762L189.145 160.945C185.55 161.001 178.329 161.072 174.743 161.104L160.34 161.16L160.738 160.762L160.659 169.661L160.301 169.295L167.458 169.335C172.023 169.383 184.405 169.581 189.129 169.661H189.145Z" fill="#EBEBEB"/>
<path d="M488.481 21.4324C483.71 21.5119 471.582 21.7108 466.938 21.7664H459.677H459.319V21.4006V12.5016V12.104H459.717L474.119 12.1597C477.706 12.1597 484.935 12.271 488.521 12.3187H488.712V12.5016L488.529 21.4006L488.481 21.4324ZM488.481 21.4324L488.298 12.5334L488.481 12.7243C484.887 12.772 477.674 12.8515 474.079 12.8754L459.677 12.9311L460.075 12.5334V21.4324L459.709 21.0745H466.866C471.431 21.1223 483.805 21.3211 488.529 21.4006L488.481 21.4324Z" fill="#EBEBEB"/>
<path d="M504.545 23.7545H475.741V32.6535H504.545V23.7545Z" fill="#EBEBEB"/>
<path d="M31.381 21.4401C26.6094 21.5276 14.4737 21.7264 9.83737 21.7741H2.57664H2.21082V21.4083V12.5173V12.1117H2.60845L16.9788 12.1992C20.5575 12.1992 27.7944 12.3105 31.381 12.3582H31.5639V12.5411L31.381 21.4322V21.4401ZM31.381 21.4401L31.1901 12.5491L31.381 12.732C27.7864 12.7797 20.5654 12.8592 16.9788 12.891L2.57664 12.9388L2.97427 12.5491V21.4401L2.6164 21.0822H9.77375C14.3385 21.13 26.7208 21.3367 31.4446 21.4083L31.381 21.4401Z" fill="#EBEBEB"/>
<path d="M18.6407 288.258C23.4123 288.179 35.6911 287.98 40.3036 287.924H47.461L47.0952 288.29V279.391L47.4928 279.789L33.0906 279.733C29.504 279.733 22.2751 279.622 18.6885 279.574L18.8714 279.391L18.6885 288.29L18.6407 288.258ZM18.6407 288.258L18.4578 279.359V279.176H18.6487C22.2433 279.137 29.4563 279.049 33.0509 279.025L47.453 278.97H47.8507V279.367V288.266V288.632H47.4928H40.2321C35.6434 288.584 23.4282 288.386 18.6885 288.306L18.6407 288.258Z" fill="#EBEBEB"/>
<path d="M2.56866 299.472H31.373V290.573H2.56866V299.472Z" fill="#EBEBEB"/>
<path d="M475.741 288.266C480.513 288.187 492.791 287.988 497.412 287.932H504.569L504.211 288.298V279.399L504.609 279.797L490.207 279.741C486.62 279.741 479.391 279.63 475.805 279.582L475.996 279.399L475.805 288.298L475.741 288.266ZM475.741 288.266L475.558 279.407V279.224H475.741C479.336 279.177 486.557 279.089 490.143 279.065L504.545 279.01H504.943V279.407V288.306V288.672H504.577L497.316 288.632C492.728 288.584 480.513 288.386 475.773 288.306L475.741 288.266Z" fill="#EBEBEB"/>
<path d="M487.925 299.742H398.752V341.549H487.925V299.742Z" fill="#EBEBEB"/>
<path opacity="0.1" d="M487.932 299.742H458.404V341.549H487.932V299.742Z" fill="#020100"/>
<path opacity="0.1" d="M487.925 299.742H398.752V308.927L487.925 304.339V299.742Z" fill="#020100"/>
<path d="M491.789 291.813H394.879V302.295H491.789V291.813Z" fill="#EBEBEB"/>
<path opacity="0.1" d="M491.797 291.813H459.709V302.295H491.797V291.813Z" fill="#020100"/>
<path d="M438.912 307.949H418.244V314.359H438.912V307.949Z" fill="#A6A6A6"/>
<path d="M448.193 244.082H390.847V285.65H448.193V244.082Z" fill="#EBEBEB"/>
<path d="M411.11 239.771H390.847V244.082H412.271L411.11 239.771Z" fill="#EBEBEB"/>
<g opacity="0.3">
<path d="M448.193 244.082H390.847V285.65H448.193V244.082Z" fill="black"/>
<path d="M411.11 239.771H390.847V244.082H412.271L411.11 239.771Z" fill="black"/>
</g>
<path d="M409.408 241.457H392.835V243.962H409.408V241.457Z" fill="white"/>
<path d="M448.193 285.65H390.847L390.434 246.658H447.78L448.193 285.65Z" fill="#EBEBEB"/>
<path d="M410.649 242.706H390.386L390.433 246.658H411.858L410.649 242.706Z" fill="#EBEBEB"/>
<g opacity="0.1">
<path d="M448.193 285.65H390.847L390.433 246.658H447.78L448.193 285.65Z" fill="black"/>
<path d="M410.649 242.706H390.386L390.433 246.658H411.858L410.649 242.706Z" fill="black"/>
</g>
<path d="M440.805 247.215H383.459V288.783H440.805V247.215Z" fill="#EBEBEB"/>
<path d="M403.722 242.905H383.459V247.215H404.883L403.722 242.905Z" fill="#EBEBEB"/>
<g opacity="0.2">
<path d="M440.805 247.215H383.459V288.783H440.805V247.215Z" fill="white"/>
<path d="M403.722 242.905H383.459V247.215H404.883L403.722 242.905Z" fill="white"/>
</g>
<path d="M402.02 244.591H385.447V247.096H402.02V244.591Z" fill="white"/>
<path d="M440.805 288.783H383.459L383.037 249.792H440.384L440.805 288.783Z" fill="#EBEBEB"/>
<path d="M403.261 245.839H382.998L383.037 249.792H404.462L403.261 245.839Z" fill="#EBEBEB"/>
<g opacity="0.4">
<path d="M440.806 288.783H383.459L383.038 249.792H440.384L440.806 288.783Z" fill="white"/>
<path d="M403.261 245.839H382.998L383.037 249.792H404.462L403.261 245.839Z" fill="white"/>
</g>
<path d="M470.222 250.014H381.049V291.821H470.222V250.014Z" fill="#DBDBDB"/>
<path d="M470.23 250.014H440.702V291.821H470.23V250.014Z" fill="#C7C7C7"/>
<path opacity="0.1" d="M470.23 250.014H381.049V259.199L470.23 254.603V250.014Z" fill="#020100"/>
<path d="M421.21 258.214H400.541V264.623H421.21V258.214Z" fill="#A6A6A6"/>
<path d="M487.051 247.018L392.079 228.605L390.087 238.877L485.06 257.29L487.051 247.018Z" fill="#DBDBDB"/>
<path d="M489.287 245.809L457.762 239.824L455.807 250.121L487.332 256.107L489.287 245.809Z" fill="#C7C7C7"/>
<path d="M267.86 36.6138L242.626 85.912L235.525 74.9215L151.378 129.325L135.505 104.776L219.643 50.3797L212.542 39.3972L267.86 36.6138Z" fill="#EBEBEB"/>
<path d="M103.766 125.302L119.631 149.851L117.5 151.227L101.618 126.677L103.766 125.302Z" fill="#EBEBEB"/>
<path d="M114.883 118.112L130.757 142.654L123.488 147.362L107.623 122.812L114.883 118.112Z" fill="#EBEBEB"/>
<path d="M130.542 107.989L146.415 132.53L135.194 139.791L119.321 115.233L130.542 107.989Z" fill="#EBEBEB"/>
<path d="M130.192 179.085L115.615 207.539L111.52 201.201L62.9688 232.59L53.8074 218.427L102.366 187.03L98.2705 180.691L130.192 179.085Z" fill="#DBDBDB"/>
<path d="M50.9443 220.279L60.0977 234.443L53.6243 238.634L44.4629 224.462L50.9443 220.279Z" fill="#DBDBDB"/>
<path d="M41.2202 226.388L37.0251 229.084L46.1378 243.26L50.333 240.563L41.2202 226.388Z" fill="#DBDBDB"/>
<path d="M35.4845 230.268L44.6459 244.44L43.4132 245.235L34.2518 231.063L35.4845 230.268Z" fill="#DBDBDB"/>
<path d="M105.46 276.799C99.7734 268.321 91.9401 256.671 86.5085 248.169L89.6418 246.125C95.0257 254.523 102.859 266.731 108.012 275.129L108.052 275.192H107.988L105.46 276.735V276.799ZM105.46 276.799L107.909 275.129V275.232C102.485 267.279 94.5406 255.096 89.2124 246.913L89.769 247.032L87.2719 248.623L87.3912 248.09C92.6877 256.281 100.243 268.369 105.483 276.791L105.46 276.799Z" fill="#EBEBEB"/>
<path d="M279.98 143.775C279.566 144.292 251.048 200.955 250.706 201.408L250.507 201.098L242.252 188.374C243.843 188.175 144.602 251.661 144.992 251.7L144.682 251.899L144.475 251.589L126.057 223.087L125.85 222.769L126.168 222.57C126.248 222.832 224.478 158.639 223.826 159.879L215.603 147.155L215.404 146.845C215.714 146.845 279.63 143.847 279.98 143.815V143.775ZM279.98 143.775C279.98 143.569 214.856 147.752 215.953 146.885L224.216 159.609C224.765 160.015 126.661 222.872 126.582 223.174L126.693 222.657L145.103 251.152L144.586 251.04C144.912 251.104 242.475 187.419 242.634 188.095L250.865 200.859C249.569 201.654 280.29 143.688 279.98 143.759V143.775Z" fill="#EBEBEB"/>
<path d="M102.461 238.356C105.595 243.056 113.515 254.929 116.522 259.494L121.19 266.651L121.389 266.953L121.078 267.16L112.657 272.631L112.331 272.846L112.108 272.512C109.07 267.741 101.3 255.684 98.3975 251.08L93.8725 243.923L93.7691 243.771L93.9202 243.676L102.461 238.356ZM102.461 238.356L94.119 243.962L94.1747 243.708L98.8508 250.786C101.833 255.263 109.746 267.415 112.776 272.083L112.227 271.963L120.681 266.548L120.577 267.049L115.981 259.955C113.094 255.414 105.356 243.072 102.406 238.356H102.461Z" fill="#EBEBEB"/>
<path d="M120.601 226.602C126.168 234.984 133.938 246.579 139.322 254.913L139.513 255.207L139.218 255.398L126.216 263.852L125.882 264.074L125.667 263.732L116.498 249.418C113.388 244.646 110.35 239.747 107.273 234.912L120.601 226.562V226.602ZM120.601 226.602C117.42 228.765 110.923 233.067 107.71 235.214L107.774 234.904C110.875 239.628 114.017 244.336 117.086 249.084L126.319 263.303L125.771 263.184L138.821 254.802L138.717 255.295C133.437 247.08 125.866 235.008 120.585 226.602H120.601Z" fill="#EBEBEB"/>
<path d="M2.48914 341.549C163.339 341.064 343.783 341.056 504.633 341.549C343.783 342.042 163.339 342.034 2.48914 341.549Z" fill="#263238"/>
<path d="M42.1013 173.208C42.1013 173.208 20.7008 170.218 25.703 144.388C25.703 144.388 49.6086 149.779 42.1013 173.208Z" fill="#80BCFF"/>
<path opacity="0.1" d="M42.1013 173.208C42.1013 173.208 20.7008 170.218 25.703 144.388C25.703 144.388 49.6086 149.779 42.1013 173.208Z" fill="black"/>
<path d="M41.0197 167.816C40.5982 166.512 40.1052 165.231 39.5644 163.967C39.5644 163.8 39.5644 163.641 39.5087 163.482C39.5087 163.124 39.4451 162.766 39.4212 162.416C39.3576 161.621 39.3099 160.873 39.2622 160.102C39.1747 158.559 39.0713 157.008 39.0475 155.465C39.0475 155.386 38.9202 155.386 38.9202 155.465C38.9202 157.008 38.9202 158.551 38.9202 160.102C38.9202 160.897 38.9918 161.645 39.0475 162.416C39.0475 162.583 39.0475 162.758 39.0475 162.925C37.8496 160.353 36.4145 157.898 34.761 155.593C34.0507 154.569 33.2889 153.581 32.4786 152.634C31.6197 151.656 30.7211 150.726 29.8622 149.763C29.8065 149.7 29.7111 149.763 29.7668 149.859C31.3053 151.56 32.6867 153.396 33.8942 155.346C34.5463 156.332 35.1613 157.34 35.7392 158.368L35.5404 158.289C35.2859 158.185 35.0393 158.074 34.7451 157.978L33.0035 157.318C31.8503 156.889 30.7052 156.475 29.56 156.038C29.4884 156.038 29.4407 156.133 29.5123 156.157C30.6495 156.611 31.7788 157.088 32.9001 157.573L34.5542 158.289L35.3495 158.631C35.5316 158.722 35.7238 158.791 35.9221 158.837C36.3515 159.633 36.781 160.428 37.1706 161.223C38.1698 163.221 39.0436 165.28 39.7871 167.386C39.8427 167.53 39.8904 167.681 39.9381 167.824C39.3767 167.5 38.7919 167.218 38.1886 166.981L35.9698 165.971C34.4747 165.287 32.9796 164.587 31.5402 163.768C31.4686 163.728 31.405 163.847 31.4845 163.887C32.9478 164.683 34.3952 165.541 35.8664 166.345C36.5981 166.742 37.3376 167.14 38.0931 167.498C38.7183 167.866 39.3972 168.134 40.1052 168.293C40.82 170.25 41.2901 172.288 41.5048 174.361C41.7434 177.279 41.7195 180.23 41.7832 183.156C41.7832 183.204 41.8627 183.204 41.8627 183.156C42.0774 180.5 42.1967 177.82 42.2126 175.148C42.2102 172.656 41.8074 170.18 41.0197 167.816Z" fill="#263238"/>
<path d="M37.7272 152.627C37.5207 154.136 37.4489 155.661 37.5125 157.183H37.5761C37.6636 155.672 37.6795 154.161 37.8545 152.658C37.8624 152.579 37.7352 152.547 37.7272 152.627Z" fill="#263238"/>
<path d="M31.6039 153.923C30.6478 153.556 29.7268 153.104 28.8523 152.571C28.7886 152.523 28.7171 152.642 28.7886 152.682C29.6454 153.26 30.5835 153.708 31.5721 154.01C31.5828 154.012 31.5937 154.009 31.6029 154.004C31.6122 153.998 31.6192 153.989 31.6229 153.979C31.6266 153.969 31.6267 153.958 31.6233 153.948C31.6198 153.937 31.613 153.929 31.6039 153.923Z" fill="#263238"/>
<path d="M42.817 214.195C42.817 211.81 42.7534 209.464 42.7296 207.102C42.6819 199.244 42.6182 191.395 42.4751 183.546C42.3637 177.311 42.2179 171.076 42.0377 164.842C42.0354 164.826 42.0301 164.811 42.0219 164.797C42.0137 164.783 42.0028 164.771 41.99 164.762C41.99 163.06 41.99 161.358 41.99 159.656C41.99 159.656 41.9423 159.593 41.8866 159.593C41.8309 159.593 41.7832 159.593 41.7832 159.664C41.7832 161.366 41.7832 163.071 41.7832 164.778C41.7698 164.785 41.7583 164.795 41.7499 164.807C41.7416 164.82 41.7366 164.834 41.7355 164.849C41.4253 175.983 41.139 187.037 41.0754 198.139C41.0754 200.39 41.0754 202.648 41.0754 204.907C41.0012 212.133 40.9747 219.367 40.9959 226.609C40.9959 227.763 40.9959 228.908 40.9959 230.061C40.9959 236.685 41.0595 243.302 41.0675 249.942C41.0675 250.3 41.4572 250.475 41.8627 250.491C42.2683 250.507 42.8568 250.324 42.8568 249.919C42.8568 242.618 42.9045 235.318 42.9045 228.017C42.817 223.42 42.817 218.816 42.817 214.195Z" fill="#263238"/>
<path d="M33.8464 207.038C33.8464 207.038 23.5557 199.412 13.7899 204.565C4.02411 209.719 2.48926 229.584 2.48926 229.584C2.48926 229.584 16.804 231.628 25.862 223.031C34.5701 214.745 33.8464 207.038 33.8464 207.038Z" fill="#80BCFF"/>
<path d="M36.6539 207.499C34.7618 206.746 32.7127 206.473 30.6894 206.704C30.2744 206.63 29.8544 206.587 29.4329 206.577L27.9776 206.466L24.9794 206.259C22.9515 206.108 20.9157 205.98 18.8877 205.774C18.8737 205.779 18.8615 205.788 18.8529 205.8C18.8443 205.812 18.8397 205.826 18.8397 205.841C18.8397 205.856 18.8443 205.871 18.8529 205.883C18.8615 205.895 18.8737 205.904 18.8877 205.909C20.8918 206.163 22.8641 206.45 24.8999 206.648C25.9338 206.752 26.9676 206.863 28.0094 206.935L28.7569 207.006C28.4547 207.078 28.1446 207.149 27.8503 207.237C26.2332 207.705 24.6689 208.34 23.1822 209.13C22.3869 209.273 21.5916 209.503 20.7964 209.694C19.524 209.989 18.2515 210.323 16.9871 210.649C14.4899 211.309 12.0167 212.04 9.53547 212.764C9.45595 212.764 9.53547 212.907 9.57523 212.891C12.0564 212.279 14.5456 211.722 17.0268 211.134L20.6453 210.267L21.5916 210.044C18.8275 211.759 16.3571 213.907 14.2752 216.406C12.2687 218.867 10.5628 221.558 9.19351 224.423C9.19351 224.502 9.26508 224.574 9.30485 224.494C10.9949 221.548 13.0614 218.835 15.4522 216.422C15.4125 216.557 15.3647 216.693 15.325 216.828C15.1262 217.44 14.9432 218.045 14.7524 218.649C14.3707 219.858 13.9571 221.075 13.6231 222.291C13.6231 222.371 13.7185 222.395 13.7504 222.291C14.1798 221.114 14.5933 219.905 15.0069 218.752L15.6192 217.011L15.9294 216.112L16.0248 215.834C17.174 214.72 18.3933 213.682 19.6751 212.724C21.3705 211.474 23.2036 210.423 25.1385 209.591C25.1385 209.774 25.0749 209.949 25.0351 210.116C24.9317 210.585 24.8283 211.054 24.7329 211.523C24.5341 212.502 24.3432 213.48 24.1524 214.458C23.7627 216.446 23.5241 218.434 23.1503 220.454C23.1503 220.534 23.2617 220.566 23.2776 220.454C23.7388 218.45 24.3353 216.478 24.7806 214.474C25.0033 213.472 25.226 212.462 25.4407 211.46L25.727 210.044C25.7747 209.782 25.8383 209.519 25.8701 209.249L26.4268 209.018C29.1307 208.024 32.1129 207.293 34.9918 207.849C36.353 208.103 37.6306 208.688 38.7113 209.554C39.792 210.42 40.6423 211.539 41.1869 212.812C41.2743 213.034 41.6322 212.899 41.5765 212.669C40.9801 210.291 38.9124 208.454 36.6539 207.499Z" fill="#263238"/>
<path d="M20.8997 215.985C20.6028 217.289 20.3139 218.593 20.0329 219.898C19.7046 221.147 19.4628 222.417 19.3092 223.699C19.3092 223.755 19.3808 223.755 19.3967 223.699C19.7716 222.444 20.0639 221.167 20.2715 219.874C20.526 218.585 20.7725 217.297 21.027 216.009C21.0429 215.937 20.9156 215.905 20.8997 215.985Z" fill="#263238"/>
<path d="M10.943 219.301C9.63879 219.961 8.36637 220.717 6.96671 221.265C6.95541 221.266 6.94454 221.27 6.93522 221.277C6.9259 221.283 6.91847 221.292 6.9137 221.302C6.90894 221.312 6.90701 221.324 6.90811 221.335C6.90921 221.346 6.91331 221.357 6.91998 221.366C6.92664 221.375 6.93564 221.383 6.94603 221.387C6.95642 221.392 6.96784 221.393 6.97909 221.392C6.99034 221.391 7.00102 221.386 7.01003 221.379C7.01904 221.373 7.02605 221.363 7.03034 221.353C8.39052 220.756 9.71785 220.087 11.0066 219.349C11.0066 219.349 11.0066 219.285 10.943 219.301Z" fill="#263238"/>
<path d="M36.1608 193.026C36.1608 193.026 23.5877 193.821 17.7346 185.534C11.8814 177.248 13.1936 165.398 13.1936 165.398C13.1936 165.398 26.4109 166.989 31.6516 172.961C36.8924 178.934 36.1608 193.026 36.1608 193.026Z" fill="#80BCFF"/>
<path d="M42.0695 205.448C41.6321 204.104 41.0913 202.776 40.5823 201.472C40.0734 200.167 39.5724 198.951 38.9918 197.71C37.8678 195.174 36.6095 192.7 35.2223 190.298C34.3395 188.771 33.3852 187.284 32.4071 185.821C32.4071 185.598 32.3434 185.375 32.3037 185.153C32.248 184.763 32.1923 184.358 32.1287 183.984C32.0094 183.188 31.8663 182.393 31.7311 181.598C31.4448 179.864 31.0869 178.139 30.8086 176.397C30.8086 176.317 30.6654 176.317 30.6813 176.397C30.9358 178.107 31.1028 179.832 31.3494 181.55C31.4607 182.393 31.572 183.244 31.6993 184.087L31.8424 184.994C29.9267 182.188 27.8502 179.496 25.6235 176.93C25.3213 176.58 25.0111 176.238 24.7089 175.896C24.7089 175.801 24.6294 175.705 24.5896 175.61C24.4942 175.371 24.4067 175.132 24.3192 174.894C24.1284 174.393 23.9534 173.892 23.7705 173.391C23.4206 172.405 23.1025 171.411 22.8321 170.401C22.8321 170.321 22.689 170.353 22.7128 170.401C22.9594 171.427 23.2297 172.46 23.5081 173.478C23.6592 173.971 23.8182 174.457 23.9932 174.942C23.9932 175.021 24.0489 175.101 24.0807 175.188C22.4901 173.431 20.7962 171.745 19.1023 170.075C19.0897 170.063 19.0729 170.057 19.0558 170.058C19.0386 170.058 19.0225 170.066 19.0109 170.079C18.9993 170.091 18.9932 170.108 18.9939 170.125C18.9947 170.142 19.0022 170.158 19.0149 170.17C22.2656 173.57 25.2438 177.221 27.9218 181.089C27.617 180.99 27.3062 180.91 26.9913 180.85C26.0211 180.66 25.0509 180.524 24.0727 180.405C22.0209 180.143 19.9771 179.88 17.9333 179.562C17.8538 179.562 17.822 179.673 17.9333 179.689C19.8817 180.071 21.8142 180.485 23.7546 180.954C24.6692 181.161 25.5837 181.343 26.4983 181.526C27.2484 181.686 27.987 181.896 28.7091 182.155C28.9159 182.441 29.1226 182.727 29.3214 183.021C30.2439 184.365 31.1346 185.741 32.0015 187.117L30.7131 186.871C29.7429 186.68 28.7727 186.505 27.7945 186.346C25.878 186.028 23.9534 185.694 22.0607 185.264C22.0438 185.264 22.0276 185.271 22.0157 185.283C22.0038 185.295 21.9971 185.311 21.9971 185.328C21.9971 185.345 22.0038 185.361 22.0157 185.373C22.0276 185.385 22.0438 185.391 22.0607 185.391C23.9852 185.845 25.8859 186.37 27.7945 186.878C28.717 187.125 29.6475 187.348 30.578 187.554L31.9776 187.857C32.1625 187.906 32.3515 187.938 32.5422 187.952C34.382 190.937 36.1024 193.983 37.7035 197.09C38.4033 198.457 39.0793 199.839 39.7314 201.233C40.4074 202.664 40.98 204.12 41.6003 205.567C41.7116 205.877 42.1649 205.758 42.0695 205.448Z" fill="#263238"/>
<path d="M29.1943 176.532C28.9557 175.331 28.7012 174.146 28.399 172.937C28.399 172.858 28.2559 172.898 28.2798 172.937C28.5183 174.114 28.741 175.323 28.9557 176.484C29.1345 177.67 29.3734 178.846 29.6715 180.007C29.5942 178.839 29.4348 177.678 29.1943 176.532Z" fill="#263238"/>
<path d="M21.854 176.182C21.2735 175.888 20.6532 175.657 20.0488 175.387L19.0945 175.013L18.6094 174.822C18.4232 174.767 18.2444 174.689 18.0765 174.591C17.9811 174.52 17.9175 174.687 18.0129 174.703C18.2017 174.751 18.3834 174.823 18.5537 174.918L19.0308 175.132L19.9454 175.538C20.5507 175.821 21.1721 176.067 21.8063 176.277C21.8779 176.333 21.9256 176.214 21.854 176.182Z" fill="#263238"/>
<path d="M49.0361 183.181C49.0361 183.181 56.6547 168.922 68.2655 166.719C79.8763 164.516 86.9303 176.429 86.9303 176.429C86.9303 176.429 78.4846 187.221 67.844 189.105C57.2034 190.99 49.0361 183.181 49.0361 183.181Z" fill="#80BCFF"/>
<path d="M75.9955 173.088C72.9786 172.688 69.9197 172.726 66.9136 173.2L67.4226 172.921L69.9992 171.601C71.7598 170.623 73.5702 169.736 75.4229 168.945C75.4311 168.955 75.4424 168.963 75.455 168.967C75.4677 168.97 75.4812 168.97 75.4936 168.965C75.5061 168.961 75.5168 168.953 75.5245 168.942C75.5321 168.931 75.5362 168.919 75.5362 168.905C75.5362 168.892 75.5321 168.879 75.5245 168.869C75.5168 168.858 75.5061 168.85 75.4936 168.845C75.4812 168.841 75.4677 168.841 75.455 168.844C75.4424 168.848 75.4311 168.855 75.4229 168.866C73.6097 169.709 71.7329 170.456 69.9117 171.251C69.0051 171.665 68.1065 172.102 67.2238 172.572C66.6512 172.874 66.0229 173.16 65.4583 173.526C62.9156 174.036 60.4451 174.856 58.1021 175.967L59.5495 174.377C60.631 173.192 61.6887 171.951 62.8737 170.878C62.9373 170.822 62.8737 170.735 62.7782 170.79C61.5695 171.888 60.2891 172.906 59.1121 174.051C58.5395 174.607 57.9987 175.18 57.4659 175.776C57.2035 176.071 56.9331 176.373 56.6706 176.691C52.6935 178.82 49.2378 181.805 46.5522 185.429C43.8666 189.054 42.0179 193.229 41.1392 197.654C41.1392 197.734 41.2426 197.781 41.2664 197.702C42.8956 192.281 45.8155 187.336 49.7757 183.292C54.0348 178.944 59.3991 175.839 65.2913 174.313C68.7878 173.423 72.4038 173.096 76.0034 173.343C76.0372 173.342 76.0691 173.328 76.0922 173.303C76.1154 173.278 76.1278 173.245 76.1267 173.212C76.1256 173.178 76.1112 173.146 76.0866 173.123C76.062 173.1 76.0292 173.087 75.9955 173.088Z" fill="#263238"/>
<path opacity="0.1" d="M86.8983 176.437C86.8983 176.437 78.4527 187.22 67.8121 189.105C59.7084 190.537 53.0361 186.314 50.3163 184.23L49.7278 183.268C49.7278 183.268 55.2151 178.647 65.5854 175.983C75.9556 173.319 86.8983 176.437 86.8983 176.437Z" fill="black"/>
<path d="M69.2674 168.023C68.3777 168.539 67.5175 169.105 66.6907 169.717C65.8873 170.328 65.1419 171.012 64.464 171.761C64.4514 171.773 64.4442 171.79 64.4442 171.808C64.4442 171.826 64.4514 171.843 64.464 171.856C64.4767 171.869 64.4938 171.876 64.5117 171.876C64.5296 171.876 64.5468 171.869 64.5594 171.856C65.3547 171.188 66.1022 170.52 66.8975 169.892C67.6738 169.255 68.4892 168.668 69.339 168.134C69.3537 168.125 69.3641 168.11 69.3678 168.093C69.3716 168.075 69.3683 168.057 69.3588 168.043C69.3494 168.028 69.3344 168.018 69.3172 168.014C69.3001 168.01 69.2821 168.013 69.2674 168.023Z" fill="#263238"/>
<path d="M75.6217 170.456C75.1923 170.639 74.7549 170.79 74.3254 170.973L73.0371 171.506C72.9417 171.546 72.9894 171.697 73.0848 171.657L74.3731 171.132C74.8026 170.957 75.2241 170.758 75.6615 170.583C75.733 170.52 75.7012 170.392 75.6217 170.456Z" fill="#263238"/>
<path d="M47.5171 201.034C47.5171 201.034 49.5529 215.142 60.1617 220.073C70.7705 225.003 83.6935 220.073 83.6935 220.073C83.6935 220.073 78.6038 189.543 47.5171 201.034Z" fill="#80BCFF"/>
<path d="M76.3849 210.895C75.4068 210.784 74.4365 210.617 73.4663 210.442L72.0428 210.172C71.8042 210.124 71.5497 210.068 71.2953 210.028C71.0169 209.758 70.7306 209.488 70.4364 209.233C68.4279 207.465 66.2579 205.888 63.955 204.525C62.6988 203.785 61.4003 203.118 60.0662 202.529H60.265L63.7562 202.68C66.0863 202.792 68.4085 202.839 70.7386 202.99C70.8261 202.99 70.8181 202.863 70.7386 202.863C68.4005 202.704 66.0784 202.45 63.7482 202.243L60.3525 201.941L58.6029 201.79L58.1575 201.742C57.5531 201.519 56.9408 201.304 56.3284 201.114C53.4361 200.122 50.3255 199.951 47.342 200.62C44.6779 201.304 42.0137 203.046 41.3219 205.861C41.3219 205.957 41.4491 206.028 41.4889 205.933C42.4829 203.547 45.0914 202.394 47.4454 201.909C49.019 201.607 50.6325 201.574 52.2169 201.813C52.3304 202.539 52.5114 203.253 52.7577 203.945C53.052 204.939 53.3383 205.933 53.6405 206.919C54.2449 208.899 54.9049 210.895 55.4934 212.852C55.5004 212.865 55.5119 212.876 55.526 212.881C55.54 212.887 55.5557 212.888 55.5701 212.883C55.5845 212.878 55.5967 212.868 55.6045 212.855C55.6123 212.842 55.6152 212.827 55.6127 212.812C55.1196 210.832 54.7061 208.836 54.229 206.855C53.9983 205.877 53.7518 204.907 53.5053 203.937C53.3732 203.255 53.1952 202.583 52.9724 201.925C53.9007 202.092 54.8193 202.31 55.724 202.577C57.3507 203.063 58.9445 203.652 60.4956 204.342C60.6467 205.344 60.8773 206.338 61.108 207.332C61.3943 208.581 61.7203 209.814 62.11 211.03C62.1145 211.043 62.1227 211.053 62.1333 211.061C62.144 211.068 62.1567 211.072 62.1696 211.072C62.1826 211.072 62.1953 211.068 62.206 211.061C62.2166 211.053 62.2248 211.043 62.2293 211.03L62.1816 210.8C61.943 209.647 61.6885 208.494 61.4499 207.34C61.2511 206.41 61.0682 205.48 60.8694 204.549C62.1895 205.146 63.4778 205.79 64.7344 206.513C64.7344 206.8 64.8298 207.094 64.8695 207.356C64.9491 207.841 65.0366 208.319 65.124 208.804C65.3229 209.893 65.5376 210.975 65.8 212.048C66.2798 214.13 66.888 216.181 67.6212 218.188C67.6133 218.2 67.6091 218.213 67.6091 218.228C67.6091 218.242 67.6133 218.256 67.6212 218.267L67.6768 218.339C67.7245 218.387 67.7961 218.339 67.7882 218.267C67.2951 216.176 66.7384 214.108 66.2772 212.009C66.0465 210.959 65.8159 209.917 65.6091 208.828C65.4978 208.303 65.4024 207.778 65.3069 207.237C65.3069 207.086 65.2513 206.927 65.2274 206.768C66.6579 207.604 68.0386 208.523 69.3628 209.519C71.6634 211.236 73.7938 213.169 75.7249 215.293C75.7964 215.373 75.9475 215.293 75.876 215.166C75.0883 214.093 74.2442 213.063 73.347 212.08C72.8142 211.508 72.2655 210.959 71.7008 210.418H71.8758C72.3689 210.506 72.8699 210.577 73.3709 210.649C74.3491 210.776 75.3352 210.871 76.3134 210.983C76.4406 211.015 76.4724 210.911 76.3849 210.895Z" fill="#263238"/>
<path d="M68.9335 215.683C68.9335 215.555 68.8938 215.436 68.8779 215.317C68.862 215.198 68.7665 215.007 68.7427 214.856C68.52 213.917 68.3371 212.963 68.1701 212.009C68.1701 211.945 68.0508 211.961 68.0508 212.009C68.1125 213.271 68.3812 214.515 68.846 215.691C68.846 215.691 68.9256 215.691 68.9176 215.691L68.9335 215.683Z" fill="#263238"/>
<path d="M60.0584 215.452C60.0565 215.437 60.0489 215.422 60.0372 215.412C60.0255 215.402 60.0104 215.396 59.9948 215.396C59.6926 214.148 59.4063 212.899 59.1518 211.635C59.0166 210.975 58.8814 210.315 58.7542 209.655C58.6826 209.297 58.619 208.939 58.5554 208.581C58.5276 208.266 58.4498 207.957 58.3248 207.666C58.3202 207.654 58.3121 207.644 58.3014 207.636C58.2908 207.629 58.2781 207.625 58.2651 207.625C58.2521 207.625 58.2394 207.629 58.2288 207.636C58.2181 207.644 58.21 207.654 58.2055 207.666C58.1965 208.308 58.2877 208.946 58.4759 209.559C58.6031 210.251 58.7383 210.935 58.8894 211.619C59.1995 213.011 59.5415 214.402 59.9391 215.77C59.9391 215.842 60.0823 215.826 60.0743 215.77C60.0664 215.715 60.0664 215.555 60.0584 215.452Z" fill="#263238"/>
<path d="M75.4227 206.839C73.4823 206.569 71.5498 206.291 69.6094 206.044C69.5219 206.044 69.4901 206.163 69.6094 206.171C71.5419 206.458 73.4823 206.696 75.4227 206.967C75.4705 206.975 75.5023 206.847 75.4227 206.839Z" fill="#263238"/>
<path d="M42.0853 167.951C42.0853 167.951 35.596 139.481 66.1897 127.958C66.1897 127.958 74.6672 165.438 42.0853 167.951Z" fill="#80BCFF"/>
<path d="M48.6862 151.807L49.0202 151.601L50.7459 150.638L54.2928 148.65C56.6309 147.346 58.9371 145.986 61.2832 144.674C61.3627 144.674 61.2832 144.523 61.2195 144.563C58.8337 145.843 56.448 147.036 54.0622 148.292L50.5551 150.145L49.1236 150.941C50.1415 149.008 51.239 147.107 52.4319 145.278C54.0224 142.845 55.78 140.507 57.6091 138.248C57.6886 138.145 57.5534 138.01 57.458 138.105C54.7745 140.714 52.3996 143.622 50.3801 146.773C50.3801 146.678 50.3801 146.575 50.3801 146.479C50.3801 145.771 50.4278 145.064 50.4437 144.356C50.4437 142.964 50.396 141.572 50.4437 140.181C50.4437 140.101 50.3165 140.101 50.3165 140.181C50.2529 141.549 50.0938 142.908 50.0143 144.276C50.0143 144.96 49.9427 145.644 49.9268 146.32C49.9268 146.694 49.8791 147.115 49.9268 147.521C49.2906 148.523 48.6862 149.538 48.1136 150.567C47.0914 152.422 46.1806 154.337 45.3859 156.301C45.3859 155.593 45.3064 154.885 45.2666 154.177C45.1791 152.587 44.9883 151.068 44.9167 149.501C44.9167 149.422 44.7894 149.422 44.7894 149.501C44.7894 151.092 44.7894 152.619 44.7894 154.177C44.7894 154.973 44.8372 155.768 44.8928 156.515L44.9405 157.39C43.9683 159.932 43.1972 162.545 42.6343 165.208C42.1056 168.054 41.7234 170.926 41.4891 173.812C41.4891 173.812 41.4891 173.812 41.5289 173.812C41.837 171.213 42.3692 168.646 43.1194 166.138C43.4932 164.794 43.9147 163.458 44.3282 162.162C45.6006 161.557 46.8174 160.81 48.05 160.126C49.2827 159.442 50.6108 158.734 51.8832 158.026C54.436 156.627 56.9887 155.203 59.6211 153.971C59.6926 153.971 59.6211 153.819 59.5495 153.859C56.8854 155.068 54.1974 156.245 51.5969 157.525C50.2926 158.185 49.0043 158.885 47.7319 159.601C46.6742 160.197 45.5847 160.794 44.5509 161.486C44.8451 160.603 45.1553 159.72 45.4972 158.846C46.4403 156.447 47.5047 154.098 48.6862 151.807Z" fill="#263238"/>
<path d="M46.1093 145.294C46.1093 145.207 45.9741 145.215 45.9821 145.294C46.0854 146.885 46.1411 148.547 46.3161 150.161C46.3161 150.18 46.3236 150.198 46.337 150.212C46.3505 150.225 46.3687 150.233 46.3876 150.233C46.4066 150.233 46.4248 150.225 46.4383 150.212C46.4517 150.198 46.4592 150.18 46.4592 150.161C46.4035 148.531 46.2286 146.917 46.1093 145.294Z" fill="#263238"/>
<path d="M60.7741 150.734C58.8655 151.529 56.933 152.237 55.0244 153.032C54.9687 153.032 55.0244 153.143 55.0244 153.119C56.9648 152.396 58.8655 151.609 60.79 150.853C60.8934 150.829 60.8536 150.702 60.7741 150.734Z" fill="#263238"/>
<path d="M63.6847 137.596C61.815 138.46 59.9986 139.434 58.2451 140.515C58.2324 140.529 58.2247 140.546 58.2229 140.565C58.2212 140.584 58.2255 140.603 58.2354 140.619C58.2452 140.635 58.26 140.647 58.2775 140.654C58.295 140.661 58.3143 140.663 58.3326 140.658C60.106 139.616 61.9112 138.622 63.7562 137.707C63.8278 137.676 63.7563 137.564 63.6847 137.596Z" fill="#263238"/>
<path d="M63.2236 229.528H19.1025V276.035H63.2236V229.528Z" fill="#455A64"/>
<path d="M18.323 245.982H16.0645V341.549H18.323V245.982Z" fill="#263238"/>
<path d="M66.0229 245.982H63.7643V341.549H66.0229V245.982Z" fill="#263238"/>
<path d="M43.3737 245.982H41.1151V341.549H43.3737V245.982Z" fill="#263238"/>
<path d="M64.8935 273.053H17.1938V279.495H64.8935V273.053Z" fill="#263238"/>
<path d="M58.3406 341.215C84.8546 336.793 153.899 322.367 173.502 312.752C282.215 260.361 334.145 78.9457 334.789 77.1722H422.316C421.664 78.9059 411.349 108.601 367.689 191.499C340.698 240.757 301.635 273.594 255.557 300.569C176.421 346.861 58.3406 341.215 58.3406 341.215Z" fill="#80BCFF"/>
<g opacity="0.1">
<path d="M58.3406 341.215C84.8546 336.793 153.899 322.367 173.502 312.752C282.215 260.361 334.145 78.9457 334.789 77.1722H422.316C421.664 78.9059 411.349 108.601 367.689 191.499C340.698 240.757 301.635 273.594 255.557 300.569C176.421 346.861 58.3406 341.215 58.3406 341.215Z" fill="black"/>
</g>
<path d="M314.454 68.0824L334.789 77.1722C334.232 78.6514 307.138 218.252 224.248 285.26C166.082 332.276 128.856 343.314 2.48926 341.438V316.88C73.8003 316.88 124.673 314.574 171.085 290.358C275.828 235.715 314.295 68.488 314.454 68.0824Z" fill="#80BCFF"/>
<path d="M314.454 68.0824H408.788L422.316 77.1722H334.789L314.454 68.0824Z" fill="#80BCFF"/>
<path d="M386.306 9.63062L447.645 87.1924L303.082 86.8028L386.306 9.63062Z" fill="#80BCFF"/>
<g opacity="0.1">
<path d="M386.306 9.63062L447.645 87.1924L303.082 86.8028L386.306 9.63062Z" fill="black"/>
</g>
<path d="M303.082 86.8028L282.055 77.1721L365.279 0L386.306 9.63061L303.082 86.8028Z" fill="#80BCFF"/>
<path d="M458.214 68.0028C457.846 71.5339 456.504 74.8933 454.337 77.7057C452.17 80.5181 449.265 82.6729 445.944 83.9293C442.624 85.1857 439.019 85.4944 435.533 84.8207C432.048 84.1471 428.818 82.5177 426.205 80.1146L416.59 81.5222L421.361 73.2356C420.263 70.5385 419.794 67.6265 419.99 64.7209C420.186 61.8153 421.041 58.9926 422.492 56.4673C423.942 53.9421 425.95 51.7808 428.361 50.1477C430.772 48.5146 433.524 47.4527 436.407 47.0426C439.29 46.6326 442.229 46.8853 445 47.7815C447.771 48.6777 450.301 50.1937 452.398 52.2145C454.495 54.2352 456.103 56.7075 457.102 59.4432C458.1 62.179 458.461 65.1064 458.158 68.0028H458.214Z" fill="white"/>
<path d="M458.214 68.0027C457.842 71.5331 456.505 74.8929 454.349 77.7128C453.807 78.4111 453.225 79.0775 452.607 79.7089C451.971 80.3214 451.296 80.8925 450.587 81.4187C447.741 83.566 444.355 84.8819 440.805 85.2201C439.922 85.3022 439.035 85.3208 438.149 85.2757C437.258 85.2504 436.37 85.1573 435.493 84.9974C431.963 84.3473 428.684 82.7283 426.021 80.3213L426.244 80.3928L416.701 81.8561L416.009 81.9674L416.359 81.3551L421.131 73.0526V73.3786C419.732 69.9506 419.344 66.1937 420.014 62.5524C420.683 58.911 422.381 55.5376 424.908 52.8312C427.434 50.1248 430.683 48.1988 434.27 47.2809C437.857 46.363 441.631 46.4918 445.147 47.6519C447.917 48.5899 450.441 50.1361 452.535 52.177C454.616 54.2147 456.207 56.6972 457.191 59.4381C458.174 62.1791 458.524 65.1072 458.214 68.0027ZM458.214 68.0027C458.521 65.1158 458.16 62.197 457.16 59.4715C456.161 56.746 454.548 54.2867 452.447 52.2832C450.346 50.2798 447.813 48.7859 445.043 47.9167C442.273 47.0475 439.34 46.8263 436.471 47.2702C433.629 47.6926 430.922 48.7618 428.558 50.3956C426.217 52.0398 424.261 54.1724 422.824 56.6463C421.413 59.1291 420.584 61.9 420.399 64.75C420.217 67.5989 420.676 70.4524 421.743 73.1003L421.814 73.2673L421.727 73.4263L416.9 81.6971L416.558 81.1881L426.133 79.8441H426.268L426.363 79.9316C428.921 82.3278 432.097 83.9637 435.533 84.6554C436.39 84.8289 437.259 84.9352 438.133 84.9735C439.007 85.0332 439.884 85.0332 440.758 84.9735C442.506 84.8401 444.227 84.4626 445.871 83.8522C447.525 83.2496 449.081 82.4084 450.492 81.3551C451.199 80.8351 451.873 80.272 452.512 79.6691C453.134 79.0471 453.716 78.3856 454.253 77.6889C456.442 74.8875 457.813 71.535 458.214 68.0027Z" fill="#263238"/>
<path d="M436.447 76.9494L428.264 68.6708L431.008 65.951L435.787 70.7941L445.72 55.2229L448.981 57.3065L436.447 76.9494Z" fill="#80BCFF"/>
<path d="M328.101 341.787C329.898 342.368 381.105 341.708 383.038 340.443C383.777 339.974 384.119 332.491 384.27 323.472V323.186C384.27 321.325 379.499 290.103 379.499 290.103L345.247 290.445L351.187 323.25V323.806C351.187 323.806 331.704 332.833 329.715 334.447C327.727 336.061 326.304 341.215 328.101 341.787Z" fill="#FBC6BF"/>
<path d="M384.27 323.186V323.472C384.119 332.499 383.777 339.966 383.038 340.443C381.105 341.7 329.898 342.368 328.109 341.787C326.32 341.207 327.823 336.053 329.779 334.447C331.735 332.84 351.251 323.814 351.251 323.814V323.242L350.353 318.295H383.714C384.056 320.92 384.278 322.78 384.27 323.186Z" fill="#EBEBEB"/>
<path d="M328.101 341.787C329.024 342.081 342.933 342.05 356.532 341.787C359.267 341.732 361.987 341.668 364.58 341.596C374.274 341.334 382.29 340.928 383.03 340.443C383.769 339.958 384.103 332.721 384.254 323.854C384.254 323.727 384.254 323.608 384.254 323.48C384.254 323.353 384.254 323.281 384.254 323.186H384.215L351.211 323.25V323.814C351.211 323.814 331.727 332.833 329.739 334.447C327.751 336.061 326.304 341.215 328.101 341.787Z" fill="#80BCFF"/>
<path d="M328.658 339.799C337.286 339.473 372.119 339.004 380.676 339.314C380.747 339.314 380.747 339.37 380.676 339.37C372.127 339.879 337.294 340.085 328.658 339.934C328.475 339.934 328.475 339.799 328.658 339.799Z" fill="#263238"/>
<path d="M347.553 323.393C350.941 322.709 355.1 323.178 357.733 325.564C357.836 325.659 357.733 325.803 357.589 325.771C354.33 324.76 350.97 324.107 347.569 323.822C347.541 323.823 347.513 323.819 347.486 323.809C347.46 323.799 347.436 323.784 347.415 323.765C347.394 323.746 347.378 323.723 347.366 323.697C347.354 323.672 347.347 323.644 347.346 323.616C347.345 323.587 347.35 323.559 347.36 323.533C347.37 323.506 347.385 323.482 347.404 323.461C347.423 323.441 347.446 323.424 347.472 323.412C347.497 323.401 347.525 323.394 347.553 323.393Z" fill="#263238"/>
<path d="M345.12 324.896C348.508 324.22 352.675 324.689 355.299 327.075C355.402 327.17 355.299 327.314 355.156 327.274C351.897 326.272 348.541 325.619 345.144 325.325C345.087 325.329 345.031 325.309 344.988 325.271C344.946 325.233 344.92 325.18 344.917 325.123C344.914 325.066 344.933 325.01 344.971 324.967C345.009 324.925 345.063 324.899 345.12 324.896Z" fill="#263238"/>
<path d="M342.686 326.407C346.074 325.731 350.241 326.2 352.865 328.586C352.969 328.674 352.865 328.817 352.722 328.785C349.463 327.783 346.107 327.13 342.71 326.836C342.653 326.84 342.597 326.82 342.555 326.782C342.512 326.744 342.487 326.691 342.483 326.634C342.48 326.577 342.5 326.521 342.538 326.478C342.576 326.436 342.629 326.41 342.686 326.407Z" fill="#263238"/>
<path d="M347.553 323.147H385.352C385.352 323.147 373.702 246.801 373.996 245.306C374.139 244.511 426.936 165.2 426.936 165.2H387.595C387.595 165.2 343.219 221.942 338.225 236.232C334.599 246.65 347.553 323.147 347.553 323.147Z" fill="#263238"/>
<path d="M369.264 242.387C369.813 240.177 371.077 238.22 372.238 236.288C374.87 231.938 420.232 169.072 420.868 168.038C420.916 167.959 421.043 167.999 421.003 168.038C419.206 171.816 374.385 233.083 371.602 238.912C370.544 241.139 369.63 243.199 369.677 245.696C369.811 248.202 370.077 250.7 370.473 253.179C370.801 255.687 371.133 258.189 371.467 260.686C372.145 265.697 372.848 270.699 373.574 275.693C375.043 285.729 376.567 295.763 378.147 305.794C378.346 307.042 378.552 308.291 378.759 309.531C378.759 309.651 378.6 309.698 378.576 309.579C376.779 299.551 375.029 289.523 373.511 279.447C371.992 269.371 370.616 259.279 369.28 249.171C368.85 246.931 368.845 244.63 369.264 242.387Z" fill="#455A64"/>
<path d="M380.89 314.192C375.324 314.192 376.914 314.088 371.435 314.152C368.731 314.152 350.989 314.39 348.476 314.947C348.42 314.947 348.42 315.066 348.476 315.074C351.012 315.504 368.747 314.939 371.451 314.844C376.962 314.661 375.379 314.645 380.89 314.39C380.994 314.398 380.994 314.192 380.89 314.192Z" fill="#37474F"/>
<path d="M503.934 341.294C502.144 341.907 450.937 342.177 448.981 340.952C448.233 340.491 447.756 333 447.446 324.005C447.446 323.91 447.446 323.814 447.446 323.719C447.375 321.866 434.603 290.97 434.603 290.97L468.075 290.7L480.473 323.146V323.711C480.473 323.711 500.124 332.371 502.136 333.946C504.148 335.521 505.715 340.69 503.934 341.294Z" fill="#FBC6BF"/>
<path d="M503.933 341.294C502.144 341.906 450.937 342.177 448.981 340.952C448.233 340.491 447.756 333 447.446 324.005C447.446 323.91 447.446 323.814 447.446 323.719C447.446 323.623 444.973 317.524 444.965 317.253L478.008 316.896L480.481 323.178V323.743C480.481 323.743 500.132 332.403 502.144 333.978C504.156 335.552 505.715 340.69 503.933 341.294Z" fill="#EBEBEB"/>
<path d="M503.933 341.294C502.144 341.906 450.937 342.177 448.981 340.952C448.233 340.491 447.756 332.999 447.446 324.005C447.446 323.91 447.446 323.814 447.446 323.719L480.481 323.178V323.743C480.481 323.743 500.132 332.403 502.144 333.978C504.156 335.552 505.715 340.69 503.933 341.294Z" fill="#80BCFF"/>
<path d="M503.345 339.314C494.708 339.147 459.868 339.314 451.327 339.783C451.255 339.783 451.255 339.831 451.327 339.839C459.876 340.189 494.716 339.759 503.345 339.449C503.528 339.449 503.528 339.314 503.345 339.314Z" fill="#263238"/>
<path d="M484.187 323.25C480.791 322.637 476.64 323.178 474.055 325.636C473.952 325.731 474.055 325.874 474.199 325.842C477.439 324.773 480.785 324.056 484.179 323.703C484.239 323.704 484.297 323.681 484.34 323.639C484.384 323.598 484.409 323.541 484.41 323.48C484.411 323.42 484.388 323.362 484.346 323.319C484.304 323.276 484.247 323.251 484.187 323.25Z" fill="#263238"/>
<path d="M486.613 324.737C483.209 324.117 479.058 324.657 476.473 327.123C476.37 327.21 476.513 327.353 476.616 327.322C479.847 326.243 483.186 325.515 486.573 325.151C486.62 325.143 486.663 325.12 486.695 325.085C486.728 325.051 486.748 325.006 486.752 324.959C486.757 324.912 486.746 324.864 486.72 324.824C486.695 324.784 486.657 324.753 486.613 324.737Z" fill="#263238"/>
<path d="M489.07 326.184C485.666 325.564 481.515 326.113 478.93 328.57C478.835 328.665 478.97 328.801 479.082 328.769C482.319 327.701 485.663 326.986 489.054 326.637C489.114 326.64 489.173 326.618 489.217 326.577C489.261 326.536 489.287 326.479 489.289 326.419C489.291 326.359 489.269 326.3 489.228 326.256C489.187 326.212 489.13 326.186 489.07 326.184Z" fill="#263238"/>
<path d="M391.73 165.231C391.73 165.231 396.446 193.972 396.764 194.894C396.764 194.894 398.521 195.69 401.679 197.185L439.851 323.051L482.127 323.202L431.97 165.231H391.73Z" fill="#263238"/>
<path d="M395.229 194.004C398.897 195.534 402.426 197.381 405.774 199.523C405.797 199.541 405.813 199.566 405.819 199.595C405.825 199.623 405.822 199.653 405.809 199.679C405.796 199.705 405.774 199.726 405.748 199.738C405.721 199.75 405.691 199.753 405.663 199.746C402.108 198.012 398.506 196.35 395.014 194.425C394.967 194.392 394.933 194.343 394.918 194.287C394.904 194.231 394.911 194.172 394.937 194.12C394.963 194.069 395.007 194.029 395.061 194.007C395.115 193.986 395.175 193.984 395.229 194.004Z" fill="#455A64"/>
<path d="M396.589 177.542C397.17 180.978 397.488 184.469 397.877 187.936L398.164 190.433C398.184 191.2 398.389 191.95 398.76 192.62C399.508 193.781 400.844 194.322 402.06 194.855C402.196 194.911 402.14 195.133 401.989 195.085C400.683 194.772 399.477 194.135 398.482 193.233C397.376 192.064 397.408 190.29 397.241 188.787C396.758 185.063 396.492 181.313 396.446 177.558C396.43 177.47 396.573 177.447 396.589 177.542Z" fill="#455A64"/>
<path d="M400.772 178.592C400.891 181.073 401.17 183.554 401.377 186.02C401.48 187.244 401.567 188.461 401.639 189.686C401.711 190.91 401.862 192.199 401.822 193.447C401.822 193.527 401.687 193.551 401.671 193.447C401.464 192.27 401.44 191.062 401.337 189.853C401.233 188.644 401.154 187.348 401.082 186.091C400.939 183.594 400.876 181.073 400.645 178.576C400.685 178.512 400.764 178.52 400.772 178.592Z" fill="#455A64"/>
<path d="M406.172 202.466C409.098 209.623 440.368 311.894 440.71 312.784C440.71 312.856 440.622 312.896 440.591 312.832C436.408 304.649 409.719 212.367 407.047 205.177L406.045 202.505C406.029 202.442 406.14 202.394 406.172 202.466Z" fill="#455A64"/>
<path d="M439.549 315.989C440.774 315.822 442.038 315.822 443.271 315.735C444.503 315.647 445.744 315.631 446.985 315.599C449.466 315.544 451.947 315.512 454.428 315.48C459.348 315.427 464.274 315.401 469.204 315.401C472.011 315.401 474.827 315.552 477.634 315.615C477.645 315.611 477.656 315.61 477.668 315.612C477.679 315.614 477.69 315.618 477.699 315.624C477.708 315.631 477.716 315.64 477.721 315.65C477.726 315.66 477.729 315.671 477.729 315.683C477.729 315.694 477.726 315.706 477.721 315.716C477.716 315.726 477.708 315.735 477.699 315.741C477.69 315.748 477.679 315.752 477.668 315.754C477.656 315.755 477.645 315.754 477.634 315.75C475.161 315.854 472.68 316.005 470.198 316.1C467.717 316.196 465.244 316.204 462.763 316.243C457.76 316.315 452.766 316.395 447.772 316.379C446.38 316.379 444.996 316.379 443.605 316.331C442.213 316.283 440.869 316.331 439.533 316.132C439.446 316.1 439.477 315.989 439.549 315.989Z" fill="#455A64"/>
<path d="M405.806 122.844C397.925 116.211 386.489 100.704 384.469 94.795C381.861 87.1843 378.306 61.394 381.089 58.6504C382.632 57.1394 400.7 61.0361 401.583 63.1993C402.466 65.3624 401.106 87.6615 401.257 89.3793C401.408 91.097 408.414 107.79 412.478 115.806C417.218 125.182 410.943 127.17 405.806 122.844Z" fill="#FBC6BF"/>
<path d="M380.381 66.2771C379.745 64.801 379.594 63.1604 379.952 61.593C380.644 59.0959 382.6 56.5431 382.242 54.9685C381.678 52.4634 379.65 48.3599 380.652 47.5567C382.696 45.8866 384.962 47.334 387.324 52.0419C387.936 53.2666 388.748 56.2966 389.614 56.5193C391.125 56.9169 392 54.2846 392.374 51.8352C393.114 47.0636 393.225 40.0812 396.454 39.4371C397.678 39.1985 398.1 40.9719 398.179 43.1271C398.553 40.0415 399.277 37.0036 400.621 36.6775C400.968 36.5963 401.334 36.6517 401.642 36.8322C401.95 37.0128 402.176 37.3047 402.275 37.6477C402.364 37.2918 402.557 36.9704 402.828 36.724C403.1 36.4777 403.439 36.3176 403.802 36.264C405.042 36.1606 405.806 37.3217 406.267 38.9042C406.383 38.7902 406.524 38.7054 406.679 38.657C406.834 38.6086 406.998 38.5979 407.158 38.6259C410.45 38.9599 410.896 51.024 409.496 53.9267C406.585 59.6365 402.903 64.9188 398.553 69.6252C394.004 70.6192 380.381 66.2771 380.381 66.2771Z" fill="#FBC6BF"/>
<path d="M396.509 56.9406C397.645 55.0231 398.34 52.8772 398.545 50.6581C398.76 48.0496 398.267 45.4412 398.219 42.8407C398.219 42.7691 398.108 42.777 398.108 42.8407C398.195 44.1131 398.108 45.4014 398.179 46.6738C398.251 47.9462 398.275 49.1789 398.179 50.4275C398.097 52.6955 397.499 54.9149 396.43 56.9168L396.509 56.9406Z" fill="#263238"/>
<path d="M400.637 58.0779C401.743 55.7866 402.611 53.3884 403.23 50.9206C403.81 48.2167 403.428 45.4253 403.094 42.7055C402.898 41.0779 402.662 39.4503 402.387 37.8226C402.387 37.759 402.267 37.759 402.275 37.8226C402.641 40.5981 402.927 43.3894 403.126 46.1888C403.331 48.7853 403.017 51.3967 402.204 53.871C401.742 55.2866 401.17 56.6624 400.613 58.0302C400.589 58.0859 400.629 58.1018 400.637 58.0779Z" fill="#263238"/>
<path d="M404.939 58.221C406.045 56.0818 407.023 54.2447 407.325 51.8033C407.593 48.9993 407.51 46.1728 407.079 43.3894C406.872 41.8864 406.617 40.3992 406.339 38.9041C406.339 38.8485 406.22 38.9041 406.228 38.9041C406.78 42.2401 407.115 45.6086 407.23 48.988C407.309 50.5949 407.14 52.2044 406.729 53.7596C406.239 55.2817 405.625 56.7606 404.892 58.1813C404.892 58.1813 404.931 58.229 404.939 58.221Z" fill="#263238"/>
<path d="M402.641 70.7225L379.085 73.7127C379.085 73.7127 382.489 92.2503 384.143 96.6242C385.797 100.998 400.295 120.633 406.275 124.458C412.256 128.284 416.614 125.254 413.433 116.506C410.252 107.758 402.999 91.1369 402.617 89.3396C402.235 87.5423 402.641 70.7225 402.641 70.7225Z" fill="#455A64"/>
<path d="M409.838 107.336L394.322 111.702C392.366 109.213 390.489 106.676 388.891 104.386L406.569 99.4076C407.619 101.921 408.748 104.664 409.838 107.336Z" fill="#37474F"/>
<path d="M401.114 76.8858C397.933 77.4266 384.612 79.1841 381.71 79.375C381.511 79.375 381.455 79.2636 381.662 79.2239C388.088 78.0494 394.574 77.2264 401.09 76.7586C401.17 76.7506 401.201 76.8699 401.114 76.8858Z" fill="#263238"/>
<path opacity="0.1" d="M406.251 124.434C401.973 121.715 393.328 110.915 388.151 103.336L410.419 108.76C411.58 111.615 412.645 114.327 413.456 116.514C416.645 125.206 412.248 128.236 406.251 124.434Z" fill="black"/>
<path d="M435.167 176.222C435.167 176.222 379.189 175.18 379.085 175.069C378.982 174.958 386.545 126.558 394.02 113.039C396.827 107.949 406.601 108.323 410.267 111.178C419.437 118.311 435.318 172.969 435.167 176.222Z" fill="#455A64"/>
<path d="M433.29 168.07L380.35 167.275C380.652 165.518 381.002 163.529 381.391 161.374L431.596 162.098C432.24 164.309 432.813 166.313 433.29 168.07Z" fill="#37474F"/>
<path d="M434.284 171.856L379.729 171.061C379.825 170.488 379.928 169.852 380.048 169.176L433.799 169.971C433.974 170.639 434.141 171.251 434.284 171.856Z" fill="#37474F"/>
<path d="M396.12 117.261C398.569 118.056 405.798 114.08 407.548 110.255C407.667 109.992 407.086 107.352 406.53 104.107C406.204 102.143 405.877 99.9403 405.734 97.9124L393.241 101.928C394.151 104.412 394.754 106.997 395.038 109.627C395.067 109.904 395.067 110.184 395.038 110.462C395.038 110.501 395.038 110.549 395.038 110.605C394.855 112.203 393.296 116.378 396.12 117.261Z" fill="#FBC6BF"/>
<path d="M405.09 98.0874C404.852 100.863 403.5 109.857 396.343 110.549C395.903 110.588 395.462 110.588 395.022 110.549C395.022 110.493 395.022 110.446 395.022 110.406C395.047 110.128 395.047 109.849 395.022 109.571C394.744 106.944 394.143 104.361 393.233 101.881L405.09 98.0874Z" fill="#263238"/>
<path d="M410.665 87.3752C410.816 92.107 405.098 104.076 401.21 106.04C395.643 108.895 388.135 107.273 386.147 100.926C384.215 94.7711 391.969 79.3033 396.128 77.6889C402.275 75.319 410.458 80.4007 410.665 87.3752Z" fill="#FBC6BF"/>
<path opacity="0.3" d="M406.872 98.8826C405.082 102.255 402.959 105.189 401.217 106.04C395.603 108.895 388.135 107.273 386.147 100.926C385.455 98.7156 386.004 95.3039 387.197 91.7571C387.873 94.2462 391.301 93.4112 391.301 93.4112L392.748 93.9759C393.432 96.9263 397.949 97.9522 400.701 97.2285C402.697 96.7275 405.186 93.2919 405.186 93.2919L406.872 98.8826Z" fill="#263238"/>
<path d="M407.396 97.7455C405.4 97.6342 405.011 95.7335 404.828 94.4452C404.478 91.7572 407.563 87.4787 407.214 84.3692C407.124 83.4512 406.727 82.5906 406.085 81.9277C405.444 81.2647 404.597 80.8387 403.683 80.719C402.036 80.6553 399.436 81.9675 398.362 81.5142C397.289 81.0609 397.837 78.5558 397.066 78.3332C395.38 77.7526 392.175 81.4506 391.237 83.2081C391.237 83.2081 394.283 74.7863 402.641 76.846C410.792 78.8103 411.389 84.9259 411.246 87.5423C411.023 92.4729 407.396 97.7455 407.396 97.7455Z" fill="#263238"/>
<path d="M396 91.5503C396 91.5503 396 91.6219 396 91.6537C395.579 92.4489 395.205 93.4112 395.818 94.0395C395.818 94.0395 395.818 94.0951 395.818 94.0792C394.99 93.5146 395.468 92.2263 396 91.5503Z" fill="#263238"/>
<path d="M397.13 91.0652C398.466 91.606 397.281 94.2463 396.048 93.7373C394.816 93.2283 396.008 90.6119 397.13 91.0652Z" fill="#263238"/>
<path d="M391.499 89.3395C391.499 89.3395 391.412 89.3395 391.404 89.3872C391.062 90.1825 390.529 91.105 389.67 91.0413C389.67 91.0413 389.67 91.0413 389.67 91.089C390.617 91.3753 391.308 90.1904 391.499 89.3395Z" fill="#263238"/>
<path d="M391.141 88.1705C389.869 87.4866 388.589 90.0712 389.766 90.7074C390.943 91.3436 392.215 88.7431 391.141 88.1705Z" fill="#263238"/>
<path d="M399.468 89.3397C399.077 89.2782 398.689 89.1959 398.307 89.0932C397.886 89.0678 397.486 88.9026 397.169 88.624C397.088 88.5163 397.044 88.3851 397.044 88.2502C397.044 88.1153 397.088 87.9841 397.169 87.8764C397.364 87.6892 397.606 87.5573 397.868 87.4944C398.131 87.4315 398.406 87.4398 398.665 87.5185C399.212 87.5987 399.709 87.8828 400.056 88.3138C400.128 88.4153 400.169 88.5352 400.175 88.6593C400.181 88.7834 400.151 88.9067 400.089 89.0145C400.027 89.1222 399.936 89.2101 399.826 89.2677C399.716 89.3254 399.592 89.3503 399.468 89.3397Z" fill="#263238"/>
<path d="M390.648 86.4289C391.006 86.5945 391.372 86.7405 391.746 86.8663C392.111 87.0773 392.536 87.1612 392.955 87.1049C393.082 87.0614 393.192 86.9771 393.267 86.8649C393.341 86.7528 393.377 86.6191 393.368 86.4846C393.311 86.2215 393.184 85.9786 393.001 85.7814C392.817 85.5841 392.584 85.4397 392.326 85.3633C391.83 85.1247 391.262 85.0821 390.736 85.244C390.615 85.2843 390.51 85.3593 390.432 85.4595C390.354 85.5598 390.307 85.6808 390.298 85.8074C390.289 85.934 390.317 86.0605 390.379 86.1711C390.442 86.2817 390.535 86.3714 390.648 86.4289Z" fill="#263238"/>
<path d="M394.322 95.9961C393.973 96.2223 393.581 96.3749 393.171 96.4446C392.761 96.5144 392.341 96.4998 391.937 96.4017C391.579 96.3174 391.236 96.1807 390.919 95.9961C390.855 95.9664 390.794 95.9319 390.736 95.8928L390.569 95.7814C390.53 95.7533 390.501 95.7133 390.487 95.6674C390.472 95.6215 390.473 95.5723 390.489 95.5269L390.537 95.4474V95.3758C390.807 94.7396 391.332 93.7853 391.332 93.7853C391.054 93.7853 389.646 93.7853 389.813 93.4752C391.152 90.6658 392.775 88.001 394.656 85.5225C394.67 85.5099 394.688 85.5021 394.707 85.5004C394.726 85.4986 394.745 85.503 394.761 85.5128C394.777 85.5227 394.789 85.5375 394.796 85.555C394.803 85.5725 394.804 85.5918 394.8 85.61C393.567 88.2026 391.897 90.5645 390.624 93.1491C391.127 93.1421 391.627 93.2064 392.112 93.34C392.191 93.4036 391.141 95.1134 391.046 95.4156C391.538 95.6976 392.081 95.8774 392.644 95.9444C393.207 96.0113 393.778 95.964 394.322 95.8053C394.378 95.8689 394.418 95.9484 394.322 95.9961Z" fill="#263238"/>
<path d="M391.42 95.8447C391.569 96.4399 391.867 96.9873 392.287 97.4352C392.522 97.678 392.828 97.8396 393.161 97.8965C393.885 98.0158 394.171 97.4273 394.283 96.8627C394.34 96.5615 394.359 96.2541 394.338 95.9481C393.379 96.225 392.357 96.1888 391.42 95.8447Z" fill="#263238"/>
<path d="M392.287 97.4591C392.522 97.7019 392.828 97.8635 393.162 97.9204C393.885 98.0397 394.172 97.4512 394.283 96.8866C393.934 96.7427 393.547 96.7209 393.185 96.8249C392.823 96.9288 392.506 97.1524 392.287 97.4591Z" fill="#FF9CBD"/>
<path d="M394.832 95.9719C394.021 95.4121 393.465 94.5536 393.286 93.5846C393.107 92.6156 393.32 91.6151 393.877 90.8027C394.269 90.2265 394.815 89.772 395.452 89.4912C396.09 89.2104 396.793 89.1146 397.483 89.2147C398.172 89.3148 398.82 89.6069 399.351 90.0574C399.882 90.508 400.276 91.0989 400.488 91.7627C400.699 92.4265 400.72 93.1364 400.547 93.8113C400.374 94.4862 400.015 95.0989 399.51 95.5793C399.006 96.0598 398.376 96.3887 397.694 96.5284C397.011 96.6682 396.303 96.6131 395.651 96.3695C395.363 96.2688 395.089 96.1354 394.832 95.9719ZM394.283 91.0811C393.917 91.6031 393.714 92.222 393.7 92.8593C393.687 93.4966 393.862 94.1237 394.205 94.6612C394.548 95.1987 395.042 95.6224 395.626 95.8786C396.209 96.1349 396.856 96.2121 397.484 96.1006C398.111 95.9892 398.692 95.6939 399.152 95.2524C399.611 94.8108 399.93 94.2427 400.066 93.6201C400.203 92.9974 400.152 92.3482 399.919 91.7547C399.687 91.1611 399.283 90.6499 398.76 90.2858C398.543 90.1314 398.304 90.0082 398.052 89.92C397.389 89.6795 396.666 89.6628 395.992 89.8725C395.318 90.0822 394.732 90.5067 394.323 91.0811H394.283Z" fill="#263238"/>
<path d="M387.849 92.3933C386.489 91.7015 386.139 89.6577 387.054 87.8286C387.46 86.9966 388.116 86.3126 388.93 85.8722C389.268 85.6595 389.655 85.5378 390.053 85.5191C390.451 85.5005 390.848 85.5854 391.203 85.7657C391.559 85.9459 391.862 86.2154 392.083 86.5476C392.303 86.8799 392.434 87.2637 392.461 87.6615C392.586 88.5802 392.419 89.5148 391.984 90.3336C391.11 92.0673 389.4 92.9818 388.064 92.4967L387.849 92.3933ZM389.161 86.3096C388.443 86.7057 387.866 87.314 387.507 88.0512C386.712 89.6417 386.958 91.3834 388.072 91.9559C389.185 92.5285 390.752 91.6935 391.555 90.1109C391.943 89.3798 392.093 88.5457 391.984 87.7252C391.952 87.4098 391.845 87.1067 391.673 86.8411C391.5 86.5755 391.266 86.3551 390.99 86.1983L390.815 86.1187C390.541 86.0337 390.253 86.0067 389.968 86.0396C389.683 86.0724 389.408 86.1644 389.161 86.3096Z" fill="#263238"/>
<path d="M393.79 91.2402L394.251 91.0494C393.964 90.3654 393.09 89.2123 391.865 89.6656L392.032 90.1348C393.129 89.7213 393.766 91.1766 393.79 91.2402Z" fill="#263238"/>
<path d="M408.12 99.5905H408.637C408.637 99.3599 408.589 97.3082 407.683 96.6481C406.776 95.988 400.613 93.5704 400.351 93.467L400.168 93.9283C401.957 94.6361 406.736 96.5686 407.397 97.0457C408.057 97.5229 408.12 99.0259 408.12 99.5905Z" fill="#263238"/>
<path d="M404.351 95.2801C404.351 95.2801 408.375 92.0593 409.917 93.61C411.46 95.1608 407.603 100.41 405.209 100.584C404.904 100.627 404.592 100.606 404.294 100.525C403.996 100.444 403.718 100.303 403.476 100.111C403.233 99.9198 403.033 99.6812 402.885 99.4098C402.737 99.1385 402.646 98.8401 402.617 98.5327L404.351 95.2801Z" fill="#FBC6BF"/>
<path d="M408.772 95.0894C408.772 95.0894 408.772 95.1451 408.772 95.153C407.078 95.32 405.87 96.489 404.884 97.7774C405.016 97.6525 405.175 97.5579 405.348 97.5C405.521 97.4421 405.704 97.4223 405.885 97.4419C406.067 97.4616 406.242 97.5202 406.398 97.6138C406.555 97.7074 406.689 97.8337 406.792 97.9841C406.792 97.9841 406.792 98.0716 406.729 98.0478C406.49 97.8932 406.211 97.8143 405.927 97.8214C405.643 97.8285 405.368 97.9212 405.138 98.0875C404.747 98.3786 404.39 98.712 404.072 99.0816C403.961 99.1929 403.738 99.0816 403.834 98.9066C404.351 96.9344 406.641 94.6758 408.772 95.0894Z" fill="#263238"/>
<path d="M398.132 126.51C387.26 124.442 366.051 115.185 362.743 112.768C355.808 107.71 341.636 82.8342 342.861 78.834C343.521 76.6311 362.409 75.8279 364.333 77.3469C366.258 78.8658 374.671 97.5147 375.745 99.0336C376.819 100.553 398.179 114.835 402.879 118.915C411.341 126.295 405.209 127.862 398.132 126.51Z" fill="#FBC6BF"/>
<path d="M363.029 84.2261C363.029 84.2261 367.005 77.0688 369.391 72.2972C370.711 69.6251 372.572 64.8297 372.636 62.4201C372.747 58.8175 370.886 43.6758 367.204 44.0495C363.872 44.3835 367.117 57.1872 367.117 57.1872C367.117 57.1872 364.985 43.978 361.041 45.1231C357.096 46.2683 362.703 60.2331 362.703 60.2331C362.703 60.2331 360.206 46.7136 356.341 48.5268C353.414 49.9026 357.772 62.8415 357.772 62.8415C357.772 62.8415 355.546 51.2307 352.468 52.5032C349.072 53.9187 352.349 66.126 352.349 66.126C345.088 70.7067 342.177 73.9116 342.805 79.6454C342.861 80.5918 363.029 84.2261 363.029 84.2261Z" fill="#FBC6BF"/>
<path d="M368.476 62.7937C368.278 61.2032 368.095 59.6127 367.761 58.1176C367.427 56.6225 367.037 55.0479 366.568 53.5448C365.983 51.5755 365.183 49.6766 364.182 47.8826C365.773 51.1909 367.021 56.6861 367.363 58.221C367.705 59.7558 368.111 61.2748 368.445 62.8096C368.429 62.8494 368.476 62.8335 368.476 62.7937Z" fill="#263238"/>
<path d="M362.941 64.098C362.607 62.1178 362.345 60.1217 361.924 58.1653C361.502 56.209 360.818 53.4812 360.269 51.5567C360.222 51.4136 359.991 51.4136 360.031 51.5567C360.508 53.4971 361.073 56.3283 361.526 58.2608C361.979 60.1932 362.512 62.1416 362.894 64.1059C362.902 64.1457 362.949 64.1298 362.941 64.098Z" fill="#263238"/>
<path d="M358.393 66.0701C357.957 63.0183 357.205 60.02 356.15 57.1235C356.102 56.9803 356.031 57.0757 356.07 57.2268C356.866 60.1932 357.526 62.5074 358.297 66.0861C358.297 66.1417 358.4 66.1338 358.393 66.0701Z" fill="#263238"/>
<path d="M344.46 88.3693L368.381 81.1483C368.381 81.1483 374.894 96.9581 375.928 98.3657C376.962 99.7733 400.152 114.915 404.78 118.716C409.409 122.518 408.645 129.635 398.705 127.735C390.132 126.096 366.894 116.601 362.552 113.698C358.21 110.796 344.46 88.3693 344.46 88.3693Z" fill="#455A64"/>
<path d="M393.734 110.875L384.835 123.417C382.115 122.407 379.324 121.317 376.66 120.235L386.712 106.08C388.994 107.631 391.42 109.285 393.734 110.875Z" fill="#37474F"/>
<path d="M349.692 93.0615C352.969 92.1788 366.242 88.0673 369.049 86.9778C369.248 86.9062 369.248 86.763 369.049 86.8187C359.164 89.2045 352.85 91.9004 349.676 92.9343C349.581 92.9581 349.613 93.0854 349.692 93.0615Z" fill="#263238"/>
<path d="M386.044 123.846C389.958 124.722 393.774 125.993 397.432 127.639C393.517 126.763 389.702 125.492 386.044 123.846Z" fill="#263238"/>
<path d="M393.36 126.327C394.227 126.804 395.42 127.393 396.239 127.918C395.672 127.879 395.121 127.716 394.623 127.442C394.126 127.167 393.695 126.786 393.36 126.327Z" fill="#263238"/>
<path d="M404.78 118.717C402.549 117.6 400.517 116.122 398.768 114.343C401 115.459 403.031 116.937 404.78 118.717Z" fill="#263238"/>
</svg>
