<svg width="41" height="38" viewBox="0 0 41 38" fill="none" xmlns="http://www.w3.org/2000/svg">
<g opacity="0.4">
<path d="M39.7823 37.3563C39.7093 37.3782 39.6315 37.3782 39.5585 37.3563L28.9029 29.7899C27.0523 30.6405 13.2926 36.4011 3.36834 26.4022C-0.914785 22.1042 -1.10878 15.478 2.92064 9.50849C5.69154 5.36707 9.82691 2.3284 14.607 0.92136C19.3871 -0.485679 24.5093 -0.171997 29.082 1.80782C35.2008 4.37471 38.8272 7.77733 39.857 12.0455C41.3493 18.2389 36.7677 23.7607 36.5737 23.9845C36.5446 24.0283 36.5066 24.0655 36.4622 24.0935C36.4178 24.1216 36.3679 24.1399 36.3159 24.1474C36.2638 24.1548 36.2108 24.1512 36.1603 24.1368C36.1098 24.1223 36.0629 24.0973 36.0226 24.0634C35.9824 24.0296 35.9499 23.9876 35.927 23.9403C35.9042 23.893 35.8915 23.8414 35.89 23.7888C35.8885 23.7363 35.8981 23.684 35.9182 23.6355C35.9383 23.5869 35.9684 23.5431 36.0066 23.507C36.0066 23.507 40.4837 18.015 39.1257 12.2097C38.1556 8.21012 34.6486 4.94183 28.7835 2.47941C24.3682 0.577224 19.426 0.282083 14.8157 1.64528C10.2053 3.00847 6.21831 5.94384 3.54741 9.9413C0.562661 14.4184 -0.9297 20.9998 3.89068 25.8948C14.1284 36.1773 28.6193 29.1183 28.7686 29.0437C28.828 29.011 28.8948 28.9939 28.9626 28.9939C29.0304 28.9939 29.0972 29.011 29.1566 29.0437L38.484 35.64L34.8127 29.5213C34.782 29.4791 34.7605 29.4309 34.7496 29.3798C34.7387 29.3288 34.7386 29.276 34.7494 29.2249C34.7601 29.1738 34.7815 29.1256 34.8121 29.0833C34.8427 29.041 34.8818 29.0055 34.9269 28.9793C34.972 28.953 35.0222 28.9366 35.0741 28.9309C35.126 28.9253 35.1785 28.9306 35.2282 28.9465C35.2779 28.9624 35.3237 28.9886 35.3627 29.0233C35.4017 29.0581 35.4329 29.1006 35.4544 29.1482L40.0957 36.819C40.1454 36.8859 40.1722 36.967 40.1722 37.0503C40.1722 37.1336 40.1454 37.2147 40.0957 37.2816C40.0536 37.3188 40.003 37.345 39.9483 37.358C39.8937 37.371 39.8367 37.3704 39.7823 37.3563Z" fill="white"/>
</g>
</svg>
