<svg width="42" height="27" viewBox="0 0 42 27" fill="none" xmlns="http://www.w3.org/2000/svg">
<g opacity="0.4">
<path d="M13.5816 26.7728C13.5274 26.7724 13.474 26.7601 13.425 26.7369C13.3761 26.7137 13.3327 26.6802 13.2981 26.6385C13.2484 26.5716 13.2216 26.4905 13.2216 26.4072C13.2216 26.3239 13.2484 26.2428 13.2981 26.1759L16.9245 21.3257L3.88116 21.8032C3.83216 21.8052 3.78323 21.7975 3.7372 21.7806C3.69116 21.7637 3.64892 21.7379 3.61288 21.7046C3.57685 21.6713 3.54772 21.6313 3.52717 21.5868C3.50662 21.5422 3.49507 21.4941 3.49315 21.4451C3.49286 21.3471 3.5296 21.2527 3.59603 21.1807C3.66246 21.1088 3.75366 21.0646 3.85131 21.057L17.6856 20.5496C17.755 20.5484 17.8234 20.5657 17.8837 20.5998C17.9441 20.6339 17.9942 20.6836 18.0289 20.7437C18.0616 20.8058 18.0786 20.8749 18.0786 20.9451C18.0786 21.0153 18.0616 21.0845 18.0289 21.1466L14.8203 25.4297L21.924 22.1166C21.9727 22.1025 22.0245 22.1025 22.0732 22.1166H40.6086V1.31288C25.5952 1.11887 3.29913 0.969635 1.44858 1.31288C1.16503 2.268 2.25448 8.41661 3.49315 13.9683C3.50415 14.0163 3.50552 14.066 3.4972 14.1146C3.48888 14.1631 3.47103 14.2096 3.44467 14.2512C3.41831 14.2928 3.38396 14.3288 3.34361 14.3571C3.30326 14.3854 3.25772 14.4054 3.20959 14.416C3.16249 14.4269 3.11366 14.4281 3.06606 14.4196C3.01847 14.4111 2.9731 14.3931 2.93267 14.3666C2.89223 14.3401 2.85757 14.3057 2.83079 14.2654C2.804 14.2252 2.78562 14.1799 2.77679 14.1324C0.86655 5.61094 0.284526 1.07412 1.03071 0.701024C1.7769 0.32793 31.8483 0.536863 40.9966 0.701024C41.0929 0.704881 41.184 0.745875 41.2508 0.81543C41.3176 0.884985 41.3548 0.9777 41.3547 1.07412V22.5942C41.3547 22.6931 41.3154 22.7881 41.2455 22.858C41.1755 22.928 41.0806 22.9673 40.9817 22.9673H22.1329L13.7607 26.8773L13.5816 26.7728Z" fill="white"/>
</g>
</svg>
