<svg width="39" height="27" viewBox="0 0 39 27" fill="none" xmlns="http://www.w3.org/2000/svg">
<g opacity="0.4">
<path d="M24.3021 26.429C24.2406 26.4285 24.1801 26.4133 24.1256 26.3848C24.0711 26.3562 24.0242 26.3151 23.9887 26.2649L19.5116 19.6089C19.4837 19.5679 19.4642 19.5217 19.4544 19.4731C19.4445 19.4245 19.4444 19.3744 19.4542 19.3258C19.4639 19.2772 19.4832 19.2309 19.511 19.1899C19.5388 19.1488 19.5745 19.1137 19.616 19.0866C19.6559 19.059 19.7009 19.0398 19.7483 19.0301C19.7957 19.0205 19.8447 19.0205 19.8921 19.0303C19.9395 19.04 19.9845 19.0593 20.0243 19.0869C20.064 19.1146 20.0978 19.15 20.1235 19.191L24.0484 25.0262L24.8095 19.3402C24.8225 19.2643 24.8578 19.1939 24.911 19.1381C24.9642 19.0823 25.0327 19.0435 25.108 19.0269C25.1975 19.0269 34.6144 16.8928 37.3306 11.7739C37.7779 10.9138 38.0251 9.96361 38.0535 8.9945C38.0819 8.02539 37.8909 7.06237 37.4947 6.17748C35.3308 0.760155 22.571 -0.135271 12.4377 2.44654C5.37877 4.23739 1.22997 7.3117 1.60306 10.4755C2.67758 19.5044 8.69185 19.0418 8.94556 19.0269C8.99379 19.0206 9.04277 19.0243 9.08954 19.0376C9.13631 19.051 9.17989 19.0737 9.21759 19.1044C9.25529 19.1351 9.28633 19.1732 9.30884 19.2163C9.33134 19.2594 9.34485 19.3067 9.34851 19.3552C9.35722 19.4535 9.3281 19.5515 9.2671 19.6291C9.20609 19.7068 9.1178 19.7582 9.02018 19.773C8.94556 19.773 2.03585 20.3401 0.871791 10.5651C0.439002 6.95352 4.69227 3.64046 12.2437 1.71529C21.4815 -0.642665 35.6293 -0.49343 38.1812 5.90887C38.6212 6.89081 38.8323 7.95986 38.7987 9.03533C38.7651 10.1108 38.4876 11.1646 37.9872 12.1171C35.3457 17.1166 27.1078 19.3104 25.5258 19.6984L24.6603 26.1007C24.6484 26.1748 24.6152 26.2438 24.5649 26.2994C24.5146 26.355 24.4492 26.3949 24.3767 26.4141L24.3021 26.429Z" fill="white"/>
</g>
</svg>
