<svg width="75" height="104" viewBox="0 0 75 104" fill="none" xmlns="http://www.w3.org/2000/svg">
<path d="M47.2151 10.713C46.9614 12.5486 51.9459 13.6978 56.0052 14.4439C55.6769 17.7869 53.4532 21.1596 50.3939 24.3085C46.5286 22.1297 41.0217 19.2643 39.9472 19.9658C38.8727 20.6672 44.4244 24.3682 48.0061 26.5173C45.4834 28.72 42.8105 30.7446 40.0069 32.5763C38.2907 30.9646 36.2611 29.5916 35.0522 30.3079C33.8434 31.0243 34.1419 33.606 34.7537 35.8297C30.5602 38.2772 27.4112 39.7696 27.4112 39.7696C26.1905 35.8625 25.2529 31.8725 24.6056 27.8306C24.8145 27.4127 25.0235 26.9948 25.2175 26.5471C25.904 24.9801 25.2175 24.3235 24.128 24.0996C23.8052 21.2446 23.7802 18.3637 24.0534 15.5035C28.8141 14.5186 34.5896 12.668 32.4256 9.81757C31.1124 8.10134 28.7245 7.90733 26.2472 8.32519C26.5801 7.75485 26.9701 7.2198 27.4112 6.72834C36.067 -2.80795 42.0963 6.72834 42.0963 6.72834C47.1256 2.53476 54.1845 3.66899 55.7067 10.2056C52.9458 9.51911 47.5434 8.44459 47.2151 10.713Z" fill="#80BCFF"/>
<path opacity="0.3" d="M47.2151 10.713C46.9614 12.5486 51.9459 13.6978 56.0052 14.4439C55.6769 17.7869 53.4532 21.1596 50.3939 24.3085C46.5286 22.1297 41.0217 19.2643 39.9472 19.9658C38.8727 20.6672 44.4244 24.3682 48.0061 26.5173C45.4834 28.72 42.8105 30.7446 40.0069 32.5763C38.2907 30.9646 36.2611 29.5916 35.0522 30.3079C33.8434 31.0243 34.1419 33.606 34.7537 35.8297C30.5602 38.2772 27.4112 39.7696 27.4112 39.7696C26.1905 35.8625 25.2529 31.8725 24.6056 27.8306C24.8145 27.4127 25.0235 26.9948 25.2175 26.5471C25.904 24.9801 25.2175 24.3235 24.128 24.0996C23.8052 21.2446 23.7802 18.3637 24.0534 15.5035C28.8141 14.5186 34.5896 12.668 32.4256 9.81757C31.1124 8.10134 28.7245 7.90733 26.2472 8.32519C26.5801 7.75485 26.9701 7.2198 27.4112 6.72834C36.067 -2.80795 42.0963 6.72834 42.0963 6.72834C47.1256 2.53476 54.1845 3.66899 55.7067 10.2056C52.9458 9.51911 47.5434 8.44459 47.2151 10.713Z" fill="white"/>
<path d="M36.4255 80.7504L37.6791 80.6459C37.6791 80.0042 32.5603 16.1902 46.8721 10.1759C47.5549 9.85676 48.3024 9.70009 49.0558 9.71822C49.8093 9.73634 50.5483 9.92873 51.215 10.2803C56.3935 12.9815 58.8709 24.1445 58.8858 24.2639L60.1095 23.9953C60.0051 23.5177 57.483 12.1458 51.797 9.17597C50.9691 8.73581 50.0506 8.4933 49.1133 8.4674C48.176 8.44151 47.2455 8.63294 46.3946 9.02673C31.2469 15.3843 36.2017 78.079 36.4255 80.7504Z" fill="#80BCFF"/>
<path d="M34.6193 79.3625C34.873 76.4971 40.7231 8.98197 29.784 1.75886C27.1723 0.042626 24.8293 -0.330485 22.8444 0.669408C17.6808 3.28107 17.0092 14.3247 16.9794 14.7873L18.233 14.8619C18.233 14.7575 18.8896 4.07203 23.4115 1.78869C24.9039 1.01265 26.8888 1.34101 29.1124 2.80354C39.4098 9.56401 33.4403 78.4969 33.3806 79.1983L34.6193 79.3625Z" fill="#80BCFF"/>
<path d="M32.9777 84.8243C33.0673 82.6305 34.8581 30.9495 24.904 26.4276C23.9705 25.9875 22.9512 25.7593 21.9192 25.7593C20.8872 25.7593 19.8679 25.9875 18.9345 26.4276C12.0994 29.4123 7.87595 42.1722 7.71179 42.7094L8.89078 43.0975C8.89078 42.9631 13.1142 30.3525 19.427 27.5767C20.1951 27.216 21.0333 27.029 21.8819 27.029C22.7305 27.029 23.5687 27.216 24.3368 27.5767C31.9629 31.039 32.2166 70.0498 31.6644 84.7945L32.9777 84.8243Z" fill="#80BCFF"/>
<path d="M35.5153 82.4667L36.754 82.3175C35.0079 66.9311 31.6501 25.9504 37.1271 21.0554C37.3927 20.7352 37.7461 20.4997 38.1438 20.3777C38.5415 20.2558 38.9662 20.2527 39.3657 20.3689C43.0369 21.7717 45.3352 35.1136 45.8277 40.128L47.0663 39.9937C46.8574 38.0685 44.8576 21.13 39.8134 19.2049C39.2001 18.9983 38.5398 18.9758 37.9139 19.1402C37.288 19.3047 36.7239 19.6488 36.2914 20.1301C29.2175 26.4429 35.2467 80.1684 35.5153 82.4667Z" fill="#80BCFF"/>
<path d="M56.3782 53.3054H11.4427L15.2035 103.643H52.6324L56.3782 53.3054Z" fill="#80BCFF"/>
<path opacity="0.2" d="M42.7379 53.3054L41.4843 103.643H15.2035L11.4427 53.3054H42.7379Z" fill="white"/>
<path d="M50.2595 34.8299C50.7371 36.0537 54.2292 35.0836 56.9603 34.1135C57.8108 36.7214 57.7845 39.536 56.8856 42.1276C53.7516 42.1276 49.4238 42.2172 48.991 43.0081C48.5582 43.7991 53.289 44.1722 56.1991 44.2916C55.4019 46.5098 54.4494 48.6692 53.3487 50.7535C51.7369 50.3506 49.9909 50.1715 49.5133 51.067C49.0358 51.9624 50.0804 53.41 51.2295 54.5741C49.4835 57.5588 48.0508 59.5138 48.0508 59.5138C45.9571 57.5299 44.0118 55.395 42.2305 53.1265C42.2305 52.7981 42.2305 52.4698 42.2305 52.1265C42.1111 50.9326 41.4694 50.7386 40.7381 50.9923C39.5675 49.3366 38.5674 47.5666 37.7534 45.7093C40.3501 43.4708 43.2752 40.3517 40.962 39.3369C40.2014 39.1224 39.3964 39.1218 38.6356 39.335C37.8747 39.5483 37.1873 39.9672 36.649 40.5457C36.6577 40.0788 36.7127 39.6139 36.8132 39.1578C38.8876 30.308 45.8719 34.1135 45.8719 34.1135C47.5434 29.8155 52.2742 28.144 55.4679 31.6064C53.3935 32.1287 49.6924 33.3226 50.2595 34.8299Z" fill="#80BCFF"/>
<path opacity="0.3" d="M50.2595 34.8299C50.7371 36.0537 54.2292 35.0836 56.9603 34.1135C57.8108 36.7214 57.7845 39.536 56.8856 42.1276C53.7516 42.1276 49.4238 42.2172 48.991 43.0081C48.5582 43.7991 53.289 44.1722 56.1991 44.2916C55.4019 46.5098 54.4494 48.6692 53.3487 50.7535C51.7369 50.3506 49.9909 50.1715 49.5133 51.067C49.0358 51.9624 50.0804 53.41 51.2295 54.5741C49.4835 57.5588 48.0508 59.5138 48.0508 59.5138C45.9571 57.5299 44.0118 55.395 42.2305 53.1265C42.2305 52.7981 42.2305 52.4698 42.2305 52.1265C42.1111 50.9326 41.4694 50.7386 40.7381 50.9923C39.5675 49.3366 38.5674 47.5666 37.7534 45.7093C40.3501 43.4708 43.2752 40.3517 40.962 39.3369C40.2014 39.1224 39.3964 39.1218 38.6356 39.335C37.8747 39.5483 37.1873 39.9672 36.649 40.5457C36.6577 40.0788 36.7127 39.6139 36.8132 39.1578C38.8876 30.308 45.8719 34.1135 45.8719 34.1135C47.5434 29.8155 52.2742 28.144 55.4679 31.6064C53.3935 32.1287 49.6924 33.3226 50.2595 34.8299Z" fill="white"/>
<path d="M16.89 40.7996C18.2929 40.9208 19.676 41.2114 21.009 41.6651C21.3675 40.7089 21.5691 39.7009 21.6059 38.6804C21.8895 29.6216 15.4125 33.4421 11.9801 30.7708C11.1992 30.0897 10.285 29.5787 9.29582 29.2704C8.30659 28.9621 7.26402 28.8631 6.23446 28.9799C6.53441 29.4548 6.79398 29.954 7.01048 30.4723C7.07845 30.671 7.10372 30.8819 7.08462 31.091C7.06553 31.3001 7.0025 31.5029 6.89967 31.686C6.79684 31.8692 6.6565 32.0285 6.48786 32.1537C6.31923 32.2788 6.12608 32.367 5.92103 32.4124C5.05858 32.5787 4.16565 32.4691 3.36907 32.099C3.13779 31.9688 2.9181 31.819 2.71243 31.6513C2.17339 32.589 1.75711 33.5922 1.47377 34.636C1.13824 35.9042 0.943034 37.2054 0.891724 38.5162C1.39717 38.6314 1.89547 38.7759 2.3841 38.949C2.582 39.0323 2.75817 39.1599 2.89897 39.322C3.03978 39.4841 3.14149 39.6764 3.19628 39.884C3.25107 40.0917 3.25744 40.3091 3.21495 40.5196C3.17247 40.73 3.08224 40.9279 2.95121 41.098C2.41282 41.6437 1.78101 42.0885 1.08574 42.4113C1.31886 43.8638 1.69889 45.2889 2.21996 46.6646H2.68259C3.02584 46.7392 3.33925 46.8138 3.66757 46.9183C3.85398 46.9605 4.03442 47.0257 4.2048 47.1123C4.42393 47.2119 4.61573 47.3629 4.76385 47.5526C4.91197 47.7423 5.01203 47.965 5.05547 48.2017C5.09235 48.4487 5.0619 48.7011 4.96734 48.9323C4.87279 49.1634 4.71761 49.3647 4.51819 49.515C4.30555 49.6716 4.08103 49.8113 3.84665 49.9329C4.70971 51.434 5.9494 52.6839 7.44328 53.5594C8.75211 52.957 10.0275 52.2845 11.2638 51.5446C10.9802 51.1716 10.7116 50.8134 10.4579 50.4403C10.1587 50.0036 10.0263 49.474 10.0848 48.9479C10.1156 48.6983 10.1963 48.4575 10.3219 48.2396C10.4475 48.0217 10.6155 47.8312 10.816 47.6794C11.2187 47.3676 11.7285 47.2281 12.2338 47.2914C12.7398 47.361 13.1994 47.6229 13.5172 48.0227C13.8157 48.4704 14.144 48.8882 14.4724 49.321C16.2021 48.0408 17.753 46.5351 19.0838 44.8439H18.9346C18.0983 44.6249 17.2443 44.4801 16.3826 44.4111C15.8804 44.3405 15.4258 44.076 15.1162 43.6744C14.8065 43.2727 14.6665 42.7658 14.726 42.2621C14.843 41.7944 15.1286 41.3864 15.528 41.1165C15.9274 40.8465 16.4125 40.7336 16.89 40.7996Z" fill="#80BCFF"/>
<path opacity="0.5" d="M16.89 40.7996C18.2929 40.9208 19.676 41.2114 21.009 41.6651C21.3675 40.7089 21.5691 39.7009 21.6059 38.6804C21.8895 29.6216 15.4125 33.4421 11.9801 30.7708C11.1992 30.0897 10.285 29.5787 9.29582 29.2704C8.30659 28.9621 7.26402 28.8631 6.23446 28.9799C6.53441 29.4548 6.79398 29.954 7.01048 30.4723C7.07845 30.671 7.10372 30.8819 7.08462 31.091C7.06553 31.3001 7.0025 31.5029 6.89967 31.686C6.79684 31.8692 6.6565 32.0285 6.48786 32.1537C6.31923 32.2788 6.12608 32.367 5.92103 32.4124C5.05858 32.5787 4.16565 32.4691 3.36907 32.099C3.13779 31.9688 2.9181 31.819 2.71243 31.6513C2.17339 32.589 1.75711 33.5922 1.47377 34.636C1.13824 35.9042 0.943034 37.2054 0.891724 38.5162C1.39717 38.6314 1.89547 38.7759 2.3841 38.949C2.582 39.0323 2.75817 39.1599 2.89897 39.322C3.03978 39.4841 3.14149 39.6764 3.19628 39.884C3.25107 40.0917 3.25744 40.3091 3.21495 40.5196C3.17247 40.73 3.08224 40.9279 2.95121 41.098C2.41282 41.6437 1.78101 42.0885 1.08574 42.4113C1.31886 43.8638 1.69889 45.2889 2.21996 46.6646H2.68259C3.02584 46.7392 3.33925 46.8138 3.66757 46.9183C3.85398 46.9605 4.03442 47.0257 4.2048 47.1123C4.42393 47.2119 4.61573 47.3629 4.76385 47.5526C4.91197 47.7423 5.01203 47.965 5.05547 48.2017C5.09235 48.4487 5.0619 48.7011 4.96734 48.9323C4.87279 49.1634 4.71761 49.3647 4.51819 49.515C4.30555 49.6716 4.08103 49.8113 3.84665 49.9329C4.70971 51.434 5.9494 52.6839 7.44328 53.5594C8.75211 52.957 10.0275 52.2845 11.2638 51.5446C10.9802 51.1716 10.7116 50.8134 10.4579 50.4403C10.1587 50.0036 10.0263 49.474 10.0848 48.9479C10.1156 48.6983 10.1963 48.4575 10.3219 48.2396C10.4475 48.0217 10.6155 47.8312 10.816 47.6794C11.2187 47.3676 11.7285 47.2281 12.2338 47.2914C12.7398 47.361 13.1994 47.6229 13.5172 48.0227C13.8157 48.4704 14.144 48.8882 14.4724 49.321C16.2021 48.0408 17.753 46.5351 19.0838 44.8439H18.9346C18.0983 44.6249 17.2443 44.4801 16.3826 44.4111C15.8804 44.3405 15.4258 44.076 15.1162 43.6744C14.8065 43.2727 14.6665 42.7658 14.726 42.2621C14.843 41.7944 15.1286 41.3864 15.528 41.1165C15.9274 40.8465 16.4125 40.7336 16.89 40.7996Z" fill="white"/>
<path d="M14.3085 9.5491C13.5188 9.00281 12.6672 8.55197 11.7715 8.20597C11.9886 7.54522 12.3222 6.92862 12.7564 6.38527C16.5769 1.49027 18.3081 6.38527 21.2779 6.38527C21.9866 6.36522 22.6916 6.49434 23.3472 6.76429C24.0028 7.03424 24.5943 7.43898 25.0834 7.95225C24.7086 8.08344 24.3445 8.2431 23.994 8.42982C23.8637 8.49696 23.7505 8.5932 23.6634 8.7111C23.5762 8.829 23.5173 8.96539 23.4914 9.1097C23.4654 9.254 23.473 9.40238 23.5136 9.54327C23.5542 9.68417 23.6267 9.81382 23.7254 9.9222C24.1081 10.3918 24.6311 10.7265 25.2178 10.8773C25.4015 10.8927 25.5862 10.8927 25.77 10.8773C25.6336 11.6152 25.4029 12.3325 25.0834 13.0114C24.7111 13.8285 24.2454 14.5997 23.6955 15.3097C23.3756 15.1425 23.0468 14.9931 22.7106 14.862C22.5702 14.8213 22.4225 14.8128 22.2784 14.8373C22.1344 14.8617 21.9977 14.9184 21.8786 15.0031C21.7595 15.0877 21.661 15.1982 21.5906 15.3262C21.5202 15.4543 21.4796 15.5965 21.4719 15.7425C21.5187 16.2595 21.655 16.7645 21.8748 17.2348C21.1141 17.8929 20.2891 18.4729 19.4124 18.966L19.1289 18.7869L18.517 18.4884C18.396 18.4347 18.2713 18.3898 18.1439 18.3541C17.9845 18.3082 17.8162 18.3033 17.6545 18.3399C17.4927 18.3764 17.3428 18.4532 17.2186 18.5631C17.0919 18.6774 16.9975 18.8231 16.9451 18.9856C16.8927 19.148 16.8841 19.3215 16.9201 19.4883C16.9644 19.6625 17.0244 19.8323 17.0992 19.9957C15.9879 20.4031 14.79 20.5162 13.622 20.3241C13.1965 19.4361 12.8228 18.5242 12.5027 17.593L13.3981 17.3543C13.7326 17.2735 14.0251 17.0714 14.2189 16.7871C14.3137 16.6407 14.3783 16.4769 14.4091 16.3052C14.4398 16.1335 14.4361 15.9574 14.398 15.7872C14.3196 15.4487 14.1115 15.1544 13.8186 14.9675C13.5257 14.7806 13.1711 14.7159 12.831 14.7874C12.4729 14.8918 12.1147 14.9664 11.7565 15.041C11.3991 13.6173 11.2434 12.1504 11.2939 10.6833H11.3834C11.9046 10.9403 12.4038 11.2398 12.8758 11.5787C13.1714 11.7642 13.528 11.8259 13.8687 11.7505C14.2094 11.6751 14.5068 11.4686 14.6965 11.1758C14.8226 10.9002 14.8529 10.5904 14.7826 10.2957C14.7123 10.0009 14.5454 9.73808 14.3085 9.5491Z" fill="#80BCFF"/>
<path opacity="0.3" d="M14.3085 9.5491C13.5188 9.00281 12.6672 8.55197 11.7715 8.20597C11.9886 7.54522 12.3222 6.92862 12.7564 6.38527C16.5769 1.49027 18.3081 6.38527 21.2779 6.38527C21.9866 6.36522 22.6916 6.49434 23.3472 6.76429C24.0028 7.03424 24.5943 7.43898 25.0834 7.95225C24.7086 8.08344 24.3445 8.2431 23.994 8.42982C23.8637 8.49696 23.7505 8.5932 23.6634 8.7111C23.5762 8.829 23.5173 8.96539 23.4914 9.1097C23.4654 9.254 23.473 9.40238 23.5136 9.54327C23.5542 9.68417 23.6267 9.81382 23.7254 9.9222C24.1081 10.3918 24.6311 10.7265 25.2178 10.8773C25.4015 10.8927 25.5862 10.8927 25.77 10.8773C25.6336 11.6152 25.4029 12.3325 25.0834 13.0114C24.7111 13.8285 24.2454 14.5997 23.6955 15.3097C23.3756 15.1425 23.0468 14.9931 22.7106 14.862C22.5702 14.8213 22.4225 14.8128 22.2784 14.8373C22.1344 14.8617 21.9977 14.9184 21.8786 15.0031C21.7595 15.0877 21.661 15.1982 21.5906 15.3262C21.5202 15.4543 21.4796 15.5965 21.4719 15.7425C21.5187 16.2595 21.655 16.7645 21.8748 17.2348C21.1141 17.8929 20.2891 18.4729 19.4124 18.966L19.1289 18.7869L18.517 18.4884C18.396 18.4347 18.2713 18.3898 18.1439 18.3541C17.9845 18.3082 17.8162 18.3033 17.6545 18.3399C17.4927 18.3764 17.3428 18.4532 17.2186 18.5631C17.0919 18.6774 16.9975 18.8231 16.9451 18.9856C16.8927 19.148 16.8841 19.3215 16.9201 19.4883C16.9644 19.6625 17.0244 19.8323 17.0992 19.9957C15.9879 20.4031 14.79 20.5162 13.622 20.3241C13.1965 19.4361 12.8228 18.5242 12.5027 17.593L13.3981 17.3543C13.7326 17.2735 14.0251 17.0714 14.2189 16.7871C14.3137 16.6407 14.3783 16.4769 14.4091 16.3052C14.4398 16.1335 14.4361 15.9574 14.398 15.7872C14.3196 15.4487 14.1115 15.1544 13.8186 14.9675C13.5257 14.7806 13.1711 14.7159 12.831 14.7874C12.4729 14.8918 12.1147 14.9664 11.7565 15.041C11.3991 13.6173 11.2434 12.1504 11.2939 10.6833H11.3834C11.9046 10.9403 12.4038 11.2398 12.8758 11.5787C13.1714 11.7642 13.528 11.8259 13.8687 11.7505C14.2094 11.6751 14.5068 11.4686 14.6965 11.1758C14.8226 10.9002 14.8529 10.5904 14.7826 10.2957C14.7123 10.0009 14.5454 9.73808 14.3085 9.5491Z" fill="white"/>
<path d="M50.9161 18.6225C51.1847 20.4581 46.2002 21.6819 42.126 22.3534C42.4544 25.6964 44.678 29.0692 47.7523 32.2181C51.6026 30.0392 57.1244 27.1738 58.1989 27.8752C59.2734 28.5767 53.7218 32.3524 50.1252 34.4268C52.6291 36.6495 55.2818 38.6988 58.0646 40.5605C59.7958 38.9487 61.8254 37.5757 63.0193 38.2921C64.2132 39.0084 63.9446 41.5902 63.3178 43.8288C67.5263 46.2763 70.6603 47.7537 70.6603 47.7537C71.8807 43.8465 72.8183 39.8565 73.466 35.8147C73.257 35.3968 73.0481 34.9641 72.8541 34.5163C72.1825 32.9493 72.8541 32.2927 73.9584 32.0688C74.2564 29.2162 74.2564 26.3403 73.9584 23.4877C69.2127 22.4878 63.5118 20.6372 65.6011 17.7868C66.8995 16.0705 69.2873 15.8765 71.7796 16.2944C71.447 15.7201 71.0515 15.1845 70.6006 14.6976C61.9597 5.16129 55.9156 14.6976 55.9156 14.6976C50.9012 10.504 43.8423 11.7128 42.3051 18.1897C45.2003 17.4286 50.5878 16.3541 50.9161 18.6225Z" fill="#80BCFF"/>
<path opacity="0.5" d="M50.9161 18.6225C51.1847 20.4581 46.2002 21.6819 42.126 22.3534C42.4544 25.6964 44.678 29.0692 47.7523 32.2181C51.6026 30.0392 57.1244 27.1738 58.1989 27.8752C59.2734 28.5767 53.7218 32.3524 50.1252 34.4268C52.6291 36.6495 55.2818 38.6988 58.0646 40.5605C59.7958 38.9487 61.8254 37.5757 63.0193 38.2921C64.2132 39.0084 63.9446 41.5902 63.3178 43.8288C67.5263 46.2763 70.6603 47.7537 70.6603 47.7537C71.8807 43.8465 72.8183 39.8565 73.466 35.8147C73.257 35.3968 73.0481 34.9641 72.8541 34.5163C72.1825 32.9493 72.8541 32.2927 73.9584 32.0688C74.2564 29.2162 74.2564 26.3403 73.9584 23.4877C69.2127 22.4878 63.5118 20.6372 65.6011 17.7868C66.8995 16.0705 69.2873 15.8765 71.7796 16.2944C71.447 15.7201 71.0515 15.1845 70.6006 14.6976C61.9597 5.16129 55.9156 14.6976 55.9156 14.6976C50.9012 10.504 43.8423 11.7128 42.3051 18.1897C45.2003 17.4286 50.5878 16.3541 50.9161 18.6225Z" fill="white"/>
</svg>
