<svg width="100" height="101" viewBox="0 0 100 101" fill="none" xmlns="http://www.w3.org/2000/svg">
<path d="M50 91.9339C26.9881 91.9339 8.33333 73.2789 8.33333 50.2673C8.33333 27.2554 26.9881 8.60059 50 8.60059C73.0117 8.60059 91.6667 27.2554 91.6667 50.2673C91.6667 73.2789 73.0117 91.9339 50 91.9339ZM44.2579 35.328C43.9842 35.1455 43.6625 35.0481 43.3333 35.0481C42.4129 35.0481 41.6667 35.7943 41.6667 36.7148V63.8198C41.6667 64.1489 41.7642 64.4706 41.9467 64.7443C42.4571 65.5102 43.4921 65.7173 44.2579 65.2064L64.5867 51.6539C64.7696 51.5318 64.9267 51.3748 65.0488 51.1918C65.5596 50.426 65.3525 49.391 64.5867 48.8806L44.2579 35.328Z" fill="white"/>
</svg>
