<svg width="22" height="51" viewBox="0 0 22 51" fill="none" xmlns="http://www.w3.org/2000/svg">
<path d="M0.87944 50.9728C1.07319 51.0031 1.27106 50.9558 1.43025 50.8413C1.58943 50.7268 1.69715 50.5543 1.73011 50.361C7.22205 18.6032 20.9967 1.91839 21.131 1.75423C21.2577 1.60184 21.3186 1.4054 21.3004 1.20809C21.2822 1.01078 21.1864 0.828755 21.034 0.702098C20.8816 0.575441 20.6851 0.514507 20.4878 0.532699C20.2905 0.55089 20.1085 0.646722 19.9819 0.799107C19.8476 0.963268 5.81921 17.9316 0.252644 50.0476C0.217759 50.2414 0.260939 50.4412 0.372766 50.6033C0.484592 50.7655 0.656008 50.8769 0.849608 50.9131L0.87944 50.9728Z" fill="white"/>
</svg>
