<svg width="23" height="12" viewBox="0 0 23 12" fill="none" xmlns="http://www.w3.org/2000/svg">
<path d="M22.5454 1.81461L7.15903 11.6643C7.00814 11.7451 6.83167 11.7638 6.6672 11.7164C6.50273 11.669 6.36328 11.5593 6.27853 11.4106L0.159773 2.06831C0.10687 2.00109 0.0679431 1.92396 0.0452764 1.84148C0.0226097 1.75899 0.0166642 1.6728 0.0277876 1.58798C0.0389111 1.50317 0.0668699 1.42143 0.11004 1.34758C0.153209 1.27373 0.210695 1.20926 0.279144 1.15796C0.429009 1.07957 0.602957 1.06061 0.766188 1.10488C0.929419 1.14914 1.06995 1.25336 1.15969 1.39672L6.9053 10.1719L21.8291 0.650532C21.98 0.569726 22.1564 0.551041 22.3209 0.59843C22.4854 0.645819 22.6248 0.755555 22.7096 0.904256C22.7602 0.97423 22.7962 1.0537 22.8154 1.13792C22.8346 1.22214 22.8366 1.30935 22.8212 1.39435C22.8059 1.47936 22.7736 1.5604 22.7262 1.63261C22.6788 1.70482 22.6173 1.76673 22.5454 1.81461Z" fill="white"/>
</svg>
