<svg width="7" height="15" viewBox="0 0 7 15" fill="none" xmlns="http://www.w3.org/2000/svg">
<path d="M1.71109 14.5454C1.62142 14.6009 1.51804 14.6303 1.41259 14.6303C1.30714 14.6303 1.20381 14.6009 1.11415 14.5454C0.954822 14.4622 0.830856 14.3243 0.765054 14.1571C0.699252 13.9898 0.69605 13.8045 0.755991 13.635L5.78529 0.845338C5.81582 0.768829 5.86308 0.700115 5.92361 0.64424C5.98414 0.588364 6.05637 0.546759 6.13507 0.522433C6.21377 0.498107 6.29691 0.491692 6.37841 0.503669C6.45991 0.515646 6.53771 0.545697 6.60608 0.591637C6.7612 0.67922 6.88148 0.817502 6.9467 0.983267C7.01192 1.14903 7.01809 1.33219 6.96424 1.50199L1.92004 14.2917C1.87622 14.3946 1.80366 14.4826 1.71109 14.5454Z" fill="white"/>
</svg>
